<?xml version="1.0" encoding="UTF-8"?><svg xmlns="http://www.w3.org/2000/svg" xmlns:xlink="http://www.w3.org/1999/xlink" height="498.0" preserveAspectRatio="xMidYMid meet" version="1.0" viewBox="-1.6 -3.0 493.0 498.0" width="493.0" zoomAndPan="magnify"><g id="change1_1"><path clip-rule="evenodd" d="M257.6,489.1c-56.2,5.9-138.9-1.8-195.2-2.5c-14.7-0.2-29.3,0.4-43.9,0.9c-4.1,0.1-13.1,2-16.8-0.8 c-3.3-2.5-1-10.4-0.5-13.5c2.3-14.4,6.6-29,11.8-42.6c6.4-16.5,15.2-35.5,30.6-45.5c16.8-10.8,90.2-24.9,109.9-30.4 c18.6-5.2,149.3-8.7,168.5-11.1c17.8-1.4,89.4,21.1,110.3,32c34.7,18.2,48.4,48.4,55.8,89.1C491.4,482.8,305,484.2,257.6,489.1z" fill="#0378ac" fill-rule="evenodd"/></g><g id="change2_1"><path clip-rule="evenodd" d="M349.5,179.4c-0.3,24.4-41,48.3-41,48.3s-1.9,17.3-20,37.3c-1.9,13.5-2.6,35.7,1.5,50.7 c3.2,11.4,11.4,17.3,10.7,19.9c0,0.1-45.7,72.6-45.7,72.6s-16.8-9.4-31.1-22.6c-16.4-15.1-30.7-34.3-30.3-39.6 c0.3-4.7,10.2-13.8,11.3-31.4c0.6-9.5-1.6-21.8-3.5-30.9c-17.3-16.6-33.3-42.3-37.2-62.9c-32.1,8.6-52.3-29-38.1-56.2 c6.8-12.9,24.8,0.3,31.6,6.5c0.3,0.2,1.7,2.1,3.3,4.4c0-12.4,0.2-24.6-0.2-36.5c-1.2-29.1,17-59.3,31-73.2 c12.7-12.7,33.4-18,52.7-10.4c19.4,7.6,71.3,90.4,71.3,90.4l-0.8,17c7.7-7.3,18.8-12.1,25.8-8.3 C348.4,158.7,349.6,171.8,349.5,179.4z" fill="#ffcfa7" fill-rule="evenodd"/></g><g id="change3_1"><path clip-rule="evenodd" d="M284.8,449.8c-0.1,0-0.5-33.4-12.8-47.5c-7.2-8.3-14.1,6.5-17.3,5.1c0.1,0.3,0.2,0.6,0.2,1 c0.5,4.1-6.1-6.8-15.1-1c-7.5,4.9-24.2,33-28.7,40.8c-0.1,0.2-1.9,3.6-2,3.6c-1.5-0.3-8.9-14.7-10.1-16.2 c-11.1-13.6-42.6-66.2-36.1-71.5c13.7-11.1,16.4-29.4,23.4-35.1c6-4.9,8.7-1.2,16.4-2.3c0.2,0-4.9,7.9-2.8,15.2 c4.4,15.4,18.6,37.5,27.2,44.4c4.1,3.2,24.2,13.8,27.3,20.7c1.5-2.8,15.9-29.9,23-43.3c22.6-42.4,13-45.2,13-45.2s19.8-1.6,22.2,6.4 c4.9,16.1,16,28.3,20.5,36.2C337.4,368.6,286.5,449.5,284.8,449.8z" fill="#fcf3e7" fill-rule="evenodd"/></g><g id="change1_2"><path d="M347.3,133.3c-1.2,3.4-23.9,23.3-28.8,31.3c-1.9,3.1-3.7,11.6-6.3,13.7c-0.6,0.5-0.2-1.5-0.2-2.2 c-0.1-1.7-0.2-3.3-0.3-5c-0.6-6.3-1.6-12.4-3.1-18.5c-0.1-0.3-0.7-2.2-1.3-4.1c-5.9-6.1-8.9-14.8-13.6-21.8 c-5.2-7.7-11.1-14.9-16.2-22.7C266.9,87.7,257.8,72,242.3,60c-8.7-6.7-19.1-11-28.7-3.3c-3.6,2.9-6.6,6.7-9.2,10.5 c-3.2,4.7-13.4,3.2-18.7,9.6c-30.7,37-21.7,101.9-21.7,101.9s-21-13.1-27.6-18.9c-7-6.2-34.9-66.9,20.5-114.9 c8.5-7.4,23-12.1,32.7-7.2c3.2-6.5,7.7-12.1,13.1-16.9C220,5.3,244.3-3,267.3,1c5.6,1,11.2,2.7,16.4,5.1 c33.1,15.9,37.9,56.1,49,86.8C338.1,107.7,353.2,116.5,347.3,133.3z M235.7,161.9c-6.5,1.2-13,45-10.4,45.9c2.9,1,21.7,9.1,24.7,9 C257,216.4,245.7,160,235.7,161.9z" fill="#0378ac"/></g><g id="change4_1"><path clip-rule="evenodd" d="M297.8,150.4c-1.1,1-13.1-9.1-24.1-16.6c-7.1-4.9-15-8.3-14.9-8.2c1-1.2,5.1-7.1,6.8-7.4 c0.4-0.1,5.2,3.1,10.3,7.7C286,135,299.4,148.9,297.8,150.4z M149.4,186.4c-2.4-1.4-4.9-2.6-7.4-3.8c-3.7-1.7-7.5-3.2-11-5.3 c-0.4-0.3-1-0.1-1.2,0.3c-0.3,0.4-0.1,1,0.3,1.2c3.1,2,6.5,3.6,9.8,5.2c0,0,0,0.1,0,0.1c-0.1,0.5,0,1.3,0.2,2.2 c0.4,1.4,1.1,3,1.3,3.8c0.4,1.4,0.7,2.8,1.1,4.3c0.4,1.4,0.7,2.8,1.1,4.2c0.4,1.9,0.8,3.8,1.1,5.7c0.1,0.5,0.5,0.8,1,0.8 c0.5-0.1,0.8-0.5,0.8-1c-0.2-2.5-0.6-5-1.1-7.4c-0.3-1.2-0.5-2.4-0.9-3.6c-0.3-1.2-0.7-2.4-1-3.6c-0.3-0.8-1.1-2.4-1.6-3.8 c-0.1-0.3-0.2-0.6-0.2-0.8c0.4,0.2,0.9,0.4,1.3,0.6c2.8,1.4,5.6,2.8,8.2,4.6c2.6,1.8,5,4,7,7c0.3,0.4,0.8,0.5,1.2,0.3 c0.4-0.3,0.5-0.8,0.3-1.2C156.8,191.8,153.3,188.8,149.4,186.4z M333.2,170.4c-3,1.8-5.7,3.8-8.2,6c-1.3,1.1-2.4,2.3-3.6,3.6 c-1.1,1.3-2.1,2.6-3.1,4c-0.6,0.9-1.2,1.8-1.7,2.7c-0.5,0.9-1.1,1.8-1.6,2.8c-0.2,0.4-0.1,1,0.3,1.2c0.4,0.2,1,0.1,1.2-0.3 c0.5-0.9,1.1-1.7,1.6-2.6c0.6-0.9,1.2-1.7,1.8-2.5c1-1.3,2-2.6,3.1-3.8c0.3-0.3,0.6-0.7,0.9-1c-0.1,1.7,0.1,3.8,0,4.3 c-0.1,1.9-0.2,3.7-0.3,5.6c0,1.3-0.1,2.6-0.1,3.9c-0.1,3-0.1,6.1-0.2,9.1c0,0.5,0.3,0.9,0.8,0.9c0.5,0,0.9-0.3,0.9-0.8 c0.3-3.1,0.5-6.2,0.6-9.3c0.1-1.2,0.1-2.5,0.2-3.7c0.1-1.9,0.1-3.7,0.2-5.6c0-0.5-0.2-2.4-0.2-4c0-0.8-0.3-2.1,0.1-2h0 c0.2-0.2,0.2-0.5,0.2-0.7c0.1-0.1,0.2-0.2,0.2-0.2c2.3-2.2,4.8-4.3,7.6-6.1c0.4-0.3,0.5-0.8,0.3-1.2 C334.2,170.3,333.6,170.2,333.2,170.4z M326.1,179c0,0-0.1,0.1-0.1,0.1C326,179.1,326.1,179,326.1,179z M199,173.3 c-2.4,0.2-4.8,0.2-7.2,0c-2.4-0.2-4.8-0.6-7.2-1.3c-1.6-0.4-3-1-4.5-1.6c-1.4-0.7-2.8-1.4-4.2-2.3c-0.5-0.3-0.9-0.6-1.3-0.9 c-0.4-0.3-0.9-0.7-1.3-1c0,0-0.4-0.5-0.6-0.8l0,0h0h0c-0.1-0.1-0.3-0.2-0.3-0.1l0,0c0,0-0.1,0-0.1-0.1c-0.4-0.3-0.5-0.8-0.3-1.2 c0.1-0.2,0.7-0.7,1.4-0.2c0.3,0.2,1.1,0.9,1.2,0.9c0.4,0.3,0.8,0.6,1.2,0.9c0.4,0.3,0.8,0.6,1.3,0.8c1.3,0.8,2.6,1.5,3.9,2 c1.3,0.6,2.7,1.1,4.2,1.4c2.3,0.6,4.5,0.9,6.8,1.1c2.3,0.2,4.6,0.2,6.9,0.1c4.6-0.3,9.2-1.2,13.7-2.6c0.5-0.1,0.9,0.1,1.1,0.6 c0.1,0.5-0.1,0.9-0.6,1.1C208.4,171.7,203.7,172.8,199,173.3z M173.4,165.1c-0.1,0.1-0.3,0.2-0.4,0.3 C173.2,165.3,173.3,165.2,173.4,165.1z M172.4,165.3c-0.1,0.1,0.2,0.1,0.3,0.1l0,0C172.6,165.4,172.5,165.4,172.4,165.3z M293.1,166 c0.2,0.4,0.1,0.9-0.3,1.2c-3.8,2.2-7.6,3.8-11.5,4.3c-2,0.3-4.1,0.4-6.2,0.1c-2-0.2-4-0.7-6-1.4c-1.3-0.5-2.5-1-3.8-1.6 c-1.2-0.6-2.4-1.3-3.6-2l-2.4-1.6c-0.3-0.2-0.8-0.5-1.2-0.8c-0.3-0.2-0.4-0.4-0.5-0.5c-0.2-0.4-0.2-0.7,0-0.9 c0.1-0.2,0.3-0.5,0.9-0.5c0.4,0,0.8,0.3,0.9,0.8c0.3,0.2,0.8,0.3,0.9,0.4l2.3,1.4c1.1,0.6,2.3,1.2,3.5,1.8c1.2,0.5,2.4,1,3.6,1.4 c1.9,0.7,3.8,1.1,5.6,1.3c1.9,0.2,3.8,0.2,5.7,0c3.7-0.5,7.2-1.8,10.9-3.8C292.3,165.4,292.9,165.5,293.1,166z M259.3,163.1 c0-0.2-0.1-0.4-0.2-0.3C259.1,162.9,259.2,163,259.3,163.1z M219,242C219,242,219,242,219,242L219,242c-0.1-0.1-0.3-0.2-0.2,0.1 C218.8,242.1,218.9,242.1,219,242L219,242z M240.6,235.7c-2.4,0.1-4.9,0.5-7.4,1.1c-1.6,0.4-3.3,0.8-4.9,1.3 c-1.6,0.5-3.2,1.1-4.8,1.7c-0.2,0.1-3.1,1.5-4.3,2.1l0,0c0.1,0,0.2,0.1,0.3,0.2c-0.1-0.1-0.3-0.1-0.4-0.1c-0.1,0-0.1,0.1-0.1,0l0,0 c-0.1,0-0.3,0.1-0.4,0.2c-0.4,0.3-0.4,0.9-0.1,1.3c0.1,0.1,0.4,0.4,1,0.3c0.1,0,0.3-0.1,0.6-0.2c1.2-0.5,4.1-1.8,4.3-1.9 c1.5-0.6,3.1-1.1,4.7-1.6c1.6-0.5,3.2-0.9,4.8-1.2c2.4-0.5,4.7-0.8,7.1-1c2.4-0.1,4.8-0.1,7.1,0.2c4.6,0.6,9.2,2,13.6,4.3 c0.4,0.2,0.9,0.1,1.2-0.4c0.2-0.4,0.1-1-0.4-1.2c-4.6-2.5-9.3-4.1-14.1-4.8C245.6,235.7,243.1,235.6,240.6,235.7z M255.6,322.3 c12.5-7.8,34.2-59.6,34.2-59.6s-18.1,23.3-32.7,28.5c-27.1,9.7-56.8-10.3-58.1-10.2C209.1,290,241.3,331.3,255.6,322.3z M209.9,174.6C209.9,174.5,209.9,174.5,209.9,174.6C209.8,174.5,209.8,174.5,209.9,174.6L209.9,174.6 C209.8,174.6,209.9,174.6,209.9,174.6z M211.3,174.3c0.2,0.2,0.4,0.5,0.2,1c0,0.1-0.1,0.3-0.3,0.5c-0.5,0.6-1.9,2-2,2.1 c-0.6,0.6-1.3,1.2-1.9,1.8c-0.7,0.6-1.4,1.1-2.1,1.6c-1.5,1-3,1.9-4.6,2.7c-0.4,0.2-0.9,0.1-1.2-0.4c-0.2-0.4-0.1-1,0.4-1.2 c1.2-0.7,2.3-1.5,3.3-2.3c0.8-0.6,1.6-1.3,2.4-1.9c0.8-0.6,1.6-1.3,2.4-1.9c0.1-0.1,1.5-1.2,2-1.7c0,0.1,0,0.2,0,0.2 c0-0.1,0-0.2,0.1-0.3c0,0,0,0,0,0l0,0c0-0.1,0.1-0.1,0.2-0.2C210.4,174,211,174,211.3,174.3z M209.9,175.4c-0.1-0.1-0.1-0.3-0.1-0.5 C209.8,175.1,209.8,175.3,209.9,175.4z M263.5,174c0.9,0.6,1.9,1.2,2.8,1.8c1.1,0.6,2.2,1.2,3.3,1.7c0.4,0.2,1,0,1.2-0.4 c0.2-0.4,0-1-0.4-1.2c-1.4-0.7-2.7-1.7-4-2.7c-0.5-0.3-0.9-0.6-1.4-0.9c-0.5-0.3-1-0.6-1.5-0.9c-1.1-0.6-2.2-1.2-3.4-1.5 c-0.5-0.2-1,0.1-1.2,0.5c-0.2,0.5,0.1,1,0.5,1.2C260.9,172.1,262.2,173.1,263.5,174z M218.6,127.2c0,0.4,0,0.8-0.1,1.1 c-0.2,0.4,0,1,0.5,1.1c0.4,0.2,1,0,1.1-0.5c0.4-0.7,0.4-1.8,0.3-2.9c-0.1-0.8-0.3-1.7-0.6-2.6c-0.3-1-0.7-2-1.1-2.9 c-1-2.2-2.2-4-2.2-4c-0.2-0.4-0.8-0.6-1.2-0.3c-0.4,0.2-0.6,0.8-0.3,1.2c0,0,1,2.2,2,4.7c0.4,1,0.9,2.1,1.2,3.1 C218.3,125.9,218.5,126.6,218.6,127.2z M257.6,111.6c-0.1-0.2-0.3-0.4-0.6-0.4c-0.1,0-0.6-0.1-1.1,0.4c-0.1,0.1-0.2,0.2-0.2,0.4 c-0.6,0.7-1.8,2.1-2.3,2.8c-0.3,0.5-0.6,0.9-0.9,1.3c-0.4,0.7-0.8,1.5-1,2.2c-0.4,1.2-0.6,2.6-0.5,4.1c0,0.5,0.4,0.9,0.9,0.9 c0.5,0,0.9-0.4,0.9-0.9c0.1-1.3,0.3-2.3,0.8-3.3c0.3-0.6,0.6-1.2,1-1.8c0.2-0.4,0.5-0.8,0.8-1.2c0.5-0.7,1.6-2.3,2.1-3 c-0.1,0-0.2,0-0.3,0c0.1,0,0.1-0.1,0.2-0.1c0,0,0.1-0.1,0.1-0.1c0,0,0,0.1,0.1,0.1c0-0.1,0.1-0.1,0.1-0.2c0.1-0.2,0.2-0.3,0.2-0.4 C257.8,112,257.7,111.7,257.6,111.6z M175.3,64c-2.7,1.8-5.1,3.9-7.5,6c-3.1,2.8-5.9,5.8-8.4,8.9c-2.6,3.3-4.7,6.7-6.5,10.3 c-3.5,7.2-5.3,15.1-5.2,23.7c0,0.5-0.4,0.9-0.8,0.9c-0.5,0-0.9-0.4-0.9-0.8c-0.3-8.9,1.5-17.2,5-24.7c1.8-3.8,4-7.4,6.7-10.8 c2.5-3.3,5.5-6.3,8.7-9.2c2.5-2.1,5-4.3,7.8-6c1.9-1.2,3.8-2.3,5.9-3.1c0.8-0.3,1.7-0.6,2.6-0.9c0.9-0.2,1.8-0.3,2.8-0.3 c0.3,0,0.6,0.1,1,0.3c0.2,0.1,0.5,0.4,0.8,0.6c0.1-0.1,0.3-0.1,0.4-0.1c0.5,0,0.9,0.4,0.9,0.9c0,0.7-0.4,1-0.8,1.1 c-0.2,0.1-0.7,0-1.1-0.2c-0.2-0.1-0.5-0.3-0.8-0.5c-0.1-0.1-0.4-0.2-0.4-0.2c-0.8,0-1.5,0.1-2.3,0.3c-0.8,0.2-1.5,0.5-2.3,0.8 C178.9,61.7,177.1,62.8,175.3,64z M187.3,58.9c0.1,0.1,0.3,0.1,0.3,0C187.7,58.8,187.5,58.8,187.3,58.9z M135.9,103.8 c0.5,0,0.9-0.3,0.9-0.8c0.3-2.7,0.8-5.7,1.4-8.8c0.4-1.9,0.9-3.8,1.5-5.7c1-3.2,2.3-6.2,4.2-8.6c0.3-0.4,0.3-0.9-0.1-1.3 c-0.4-0.3-0.9-0.3-1.3,0.1c-2.2,2.4-3.8,5.6-4.9,9c-0.6,1.9-1.1,3.9-1.5,5.9c-0.6,3.1-0.9,6.3-1.1,9 C135.1,103.3,135.4,103.7,135.9,103.8z M209.7,50.1c0.7-0.4,1.5-1.3,2.2-2.4c1.2-1.9,2.4-4.6,3.3-5.6c2.2-2.7,4.6-5.3,7.3-7.5 c2.7-2.1,5.6-3.9,9-4.9c10.9-3.5,21.1-0.1,29.8,6.5c5,3.8,9.6,8.5,13.6,13.7c6.4,8.3,11.4,17.5,14.6,25.2c1,2.3,1.8,4.7,2.7,7.1 c1.3,3.6,2.4,7.2,3.7,10.8c0.2,0.5,0.6,0.7,1.1,0.5c0.5-0.2,0.7-0.6,0.5-1.1c-1.2-3.6-2.3-7.2-3.6-10.8c-0.8-2.4-1.7-4.8-2.6-7.2 c-3.2-7.9-8.2-17.4-14.7-25.8c-4.1-5.4-8.8-10.3-14-14.2c-9.3-7-20.1-10.4-31.8-6.7c-3.6,1.2-6.8,3-9.6,5.4c-2.8,2.3-5.3,5-7.5,7.9 c-0.9,1.1-2.1,3.8-3.4,5.8c-0.5,0.8-1,1.6-1.5,1.8c-0.4,0.2-0.6,0.8-0.3,1.2S209.3,50.3,209.7,50.1z M291.3,97.8 c-2.3-4.1-4.7-8.1-7.4-11.9c-1.7-2.4-3.6-4.7-5.7-6.7c-0.3-0.4-0.9-0.4-1.3,0c-0.4,0.3-0.4,0.9,0,1.3c2.4,2.5,4.4,5.2,6.3,8.1 c1.9,2.9,3.6,5.9,5.3,8.9c2.3,4,4.7,8.1,7.4,11.9c1.7,2.4,3.5,4.7,5.6,6.9c0.3,0.4,0.9,0.4,1.2,0c0.4-0.3,0.4-0.9,0-1.2 C298.1,109.9,294.7,103.8,291.3,97.8z M315.6,99.2c-4.3-9.8-7.1-19.8-11.2-29.5c-1.8-4.1-3.8-8.2-6.2-12.2c-2-3.3-4.1-6.5-6.4-9.6 c-2.3-3.1-4.7-6.1-7.3-9c-1.7-1.9-4.1-3.8-6-5.8c-0.8-0.9-1.5-1.7-2.1-2.6c-0.2-0.4-0.8-0.6-1.2-0.3c-0.4,0.2-0.6,0.8-0.3,1.2 c0.6,1,1.4,2,2.3,3c1.9,2.1,4.2,4,5.9,5.9c2.5,2.9,4.8,5.8,7,8.9c2.2,3.1,4.3,6.3,6.3,9.5c2.4,3.9,4.3,7.8,6.1,11.9 c4.2,9.6,7.2,19.6,11.6,29.3c0.2,0.4,0.7,0.6,1.1,0.4C315.6,100.2,315.8,99.7,315.6,99.2z M81,468.1c-1.3-4.2-2.7-8.3-4.4-12.3 c-1.8-4.3-4-8.5-6.9-12.4c-1.5-1.9-3-3.9-4.7-5.8c-1.7-1.9-3.4-3.7-5.3-5.3c0,0-0.5-0.5-0.7-0.6c-0.5-0.4-1-0.3-1-0.3 c-0.5,0.2-0.7,0.7-0.5,1.2c0.1,0.1,0.1,0.3,0.2,0.3l0.8,0.8c1.8,1.6,3.5,3.3,5,5.2c1.6,1.9,3.1,3.8,4.5,5.7c2.8,3.8,4.8,7.8,6.5,12 c1.7,4,3,8.1,4.4,12.1c2.1,6.2,4.2,12.4,7.4,18.2c0.2,0.4,0.8,0.6,1.2,0.4c0.4-0.2,0.6-0.8,0.4-1.2C84.9,480.3,83,474.2,81,468.1z M228.8,424.3L228.8,424.3L228.8,424.3c-0.1,0.1,0,0.1,0.1,0.1L228.8,424.3C228.8,424.3,228.8,424.3,228.8,424.3z M275,419.1 c0.3,0.4,0.3,0.9-0.1,1.2c-3.6,3.4-8,6.1-12.7,7.9c-0.1,0.1-0.3,0.3-0.5,0.3c-0.1,0-0.2,0-0.4,0c-0.4,0.1-0.8,0.3-1.2,0.4 c-2.7,0.9-5.6,1.5-8.5,1.7c-1.3,0.1-2.7,0.1-4,0.1c0,0.5-0.4,0.9-0.9,0.9c-0.5,0-0.9-0.4-0.9-0.9c0,0,0-0.1,0-0.1 c-1-0.1-1.9-0.2-2.9-0.4c-2-0.3-3.9-0.8-5.7-1.5c-1.9-0.7-3.6-1.5-5.4-2.5c-0.3-0.1-2.2-1.6-3.1-2.1c0.1,0,0.3-0.1,0.4-0.1 c-0.2,0.1-0.3,0.1-0.5,0.1c0,0-0.1,0-0.1,0l0,0c-0.3-0.1-0.5-0.2-0.6-0.5c-0.2-0.4,0-1,0.4-1.2c0.1-0.1,0.3-0.1,0.5-0.1 c0.1,0,0.4,0.1,0.7,0.2c0.9,0.5,2.9,1.9,3.2,2c0.1,0.1,0.2,0.1,0.4,0.2c-0.1-0.2-0.2-0.5-0.1-0.7c0.5-1.9,1-3.8,1.6-5.6 c0.3-0.9,0.6-1.8,0.9-2.8c0.3-0.9,0.6-1.8,0.9-2.7c0-0.2,0.7-1.9,0.9-2.7c0,0,0,0.1,0.1,0.1c0-0.1,0-0.1-0.1-0.2c0,0,0-0.1,0-0.1h0 c0-0.2,0-0.3,0.1-0.5c0.2-0.5,0.7-0.7,1.2-0.5c0.2,0.1,0.4,0.2,0.5,0.5c0.1,0.1,0.1,0.4,0.1,0.8c-0.1,0.8-0.6,2.9-0.7,3.1 c-0.4,1.5-0.8,3-1.3,4.5c-0.7,2.2-1.6,4.4-2.4,6.6c-0.1,0.3-0.4,0.6-0.7,0.6c1.3,0.6,2.6,1.2,3.9,1.6c1.8,0.6,3.6,1,5.4,1.3 c0.8,0.1,1.7,0.2,2.6,0.3c0-1.2,0.1-2.5,0.1-3.7c0.1-1.8,0.3-3.5,0.4-5.3c0.1-1.2,0.2-2.3,0.3-3.5l0.4-4.7c0-0.3,0.3-1,0.5-1.5 c-0.1-0.1-0.1-0.1-0.2-0.2c-0.3-0.4-0.2-0.8,0.1-1.1c-0.1,0-0.2,0-0.3,0c-0.4,0-0.7-0.1-1,0c-0.5,0.1-1-0.1-1.1-0.6 c-0.1-0.5,0.1-1,0.6-1.1c0.4-0.2,1-0.2,1.7-0.2c1.7,0.1,4,0.7,5.2,0.6c1.1-0.1,2-0.2,2.9-0.4c1-0.2,1.9-0.5,2.8-0.9 c1.8-0.7,3.4-1.7,5.3-3c0.4-0.3,0.9-0.2,1.2,0.2c0.3,0.4,0.2,0.9-0.2,1.2c-1.7,1.3-3.3,2.4-4.9,3.2c0,0,0.1,0,0.1,0.1 c0.1,0.1,0.2,0.3,0.3,0.6c0.1,0.4,0,1.3,0.1,1.8l0.7,4.1c0.2,1.4,0.4,2.9,0.5,4.3c0.2,2.1,0.2,4.3,0.5,6.4c0,0.4,0.1,0.7,0.1,1.1 c3.7-1.4,7.1-3.4,10.2-5.8c-0.8-1.6-1.5-3.3-2.2-4.9c-0.5-1-0.9-2.1-1.4-3.1c-0.3-0.7-0.6-1.4-0.9-2.1l-1.5-3.8 c-0.2-0.5-0.6-1.7-0.7-2l0-0.1c-1.6-4-1.5-5.2-0.8-4.6c0.2-0.9,1.2,0,2.5,4l0,0.1c0.1,0.3,0.6,1.4,0.8,1.9l1.8,3.7 c0.5,1,0.9,2.1,1.4,3.2c0.9,2.2,1.7,4.4,2.5,6.6c0,0,0,0,0,0C274.2,418.8,274.7,418.8,275,419.1z M258.4,408.7 c-0.1,0,0.1,0.2,0.1,0.2c0,0,0,0,0.1,0.1C258.6,408.8,258.6,408.7,258.4,408.7z M247.7,409.8c0-0.2,0-0.3-0.1-0.3 C247.5,409.4,247.6,409.6,247.7,409.8C247.7,409.7,247.7,409.7,247.7,409.8z M260.4,426.7c-0.2-0.9-0.4-1.9-0.5-2.8 c-0.2-1.6-0.4-3.1-0.5-4.7c-0.1-1.5-0.3-3.1-0.5-4.6l-0.5-4.1c0-0.3,0.1-0.9,0.2-1.3c-0.1,0-0.1-0.1-0.1-0.1 c-0.2-0.2-0.3-0.4-0.3-0.7c-0.7,0.3-1.3,0.5-2.1,0.6c-0.8,0.2-1.6,0.3-2.4,0.3c0.2,0.3,0.4,0.7,0.5,1.3c0.2,1.2,0.1,3,0.1,3.7 c0.1,1.1,0.2,2.2,0.3,3.3c0.1,0.8,0.1,1.6,0.2,2.3c0.1,1.8,0.3,3.6,0.5,5.5c0.1,0.5-0.3,0.9-0.7,1c-0.5,0.1-0.9-0.3-1-0.7 c-0.4-2.2-0.8-4.5-1-6.7c-0.1-0.7-0.2-1.5-0.2-2.3c-0.1-0.8-0.1-1.5-0.1-2.3c0-0.5,0.1-1.7,0.2-2.8c0-0.3,0-0.7,0-0.9 c0-0.1,0-0.3,0-0.3c-0.3-0.3-0.3-0.8,0-1.1c-0.5,0-1.2-0.1-1.9-0.3c-0.4-0.1-0.8-0.2-1.2-0.2c0.1,0.2,0.1,0.5,0.1,0.9 c0,0.5-0.2,1.3-0.2,1.7l-0.2,4.7c-0.1,1.6-0.2,3.2-0.4,4.7c-0.2,2.3-0.6,4.7-0.7,7c0,0.2,0,0.5,0,0.7c1.2,0,2.5,0,3.7-0.1 c2.7-0.2,5.4-0.7,8-1.5C259.9,426.9,260.1,426.8,260.4,426.7z M244.2,412.5c0,0.3,0.1,0.7,0.1,0.8l-0.5,3.4 c-0.2,0.8-0.3,1.6-0.5,2.4c-0.1,0.5-0.2,1.1-0.4,1.6c-0.5,2-1,3.9-1.6,5.9c-0.1,0.5-0.6,0.7-1.1,0.6c-0.5-0.1-0.7-0.6-0.6-1.1 c0.5-2.3,0.9-4.6,1.4-6.9c0.2-1,0.4-2,0.7-3l0.8-3.3c0.1-0.3,0.1-1,0.2-1.3c0.1-0.2,0.2-0.4,0.2-0.5c0.3-0.3,0.5-0.4,0.8-0.4 c0.2,0,0.5,0.1,0.8,0.5C244.7,411.7,244.6,412.2,244.2,412.5z M244.4,412.1c-0.1,0-0.1,0.1-0.1,0.2c0,0,0,0,0.1-0.1 C244.3,412.2,244.5,412.1,244.4,412.1z M252.3,410.6L252.3,410.6L252.3,410.6C252.3,410.5,252.3,410.6,252.3,410.6z M262.4,411 L262.4,411c-0.1,0-0.1,0-0.1,0l0,0c0.3,0.7,0.8,2.3,0.9,2.4c0.2,0.4,0.4,0.8,0.5,1.2c0.2,0.4,0.4,0.8,0.6,1.2 c0.7,1.2,1.4,2.3,2.1,3.4c0.2,0.4,0.8,0.5,1.2,0.3c0.4-0.2,0.5-0.8,0.3-1.2c-0.7-1.3-1.3-2.7-2-4.1c-0.3-0.6-0.6-1.2-0.9-1.7 c-0.1-0.1-0.9-1.7-1.2-2.3c-0.1-0.1-0.1-0.2-0.1-0.2c0,0,0-0.1,0-0.1c-0.5-0.7-1.2-0.4-1.3-0.3c-0.4,0.2-0.5,0.8-0.3,1.2 c0,0,0,0,0,0.1C262.2,410.8,262.3,410.9,262.4,411z M262.2,411L262.2,411c0-0.1,0-0.2-0.1-0.2l0,0c0,0,0,0,0-0.1h0 C261.8,410.8,261.9,410.9,262.2,411z M203.7,351.5c-1.6-3.1-3-6.3-3.7-9.6c-0.1-0.4-0.5-2.1-0.7-3.8c-0.1-0.9-0.2-1.9-0.1-2.5 c0-0.1,0-0.3,0-0.4c0,0,0,0-0.1,0c0,0,0,0,0.1,0c0,0,0-0.1,0.1-0.1c0,0,0,0,0,0c0.4-0.2,0.5-0.7,0.3-1.1c-0.2-0.5-0.7-0.7-1.2-0.5 c-0.6,0.2-1,1-1.2,2.2c-0.2,2.1,0.5,5.9,0.6,6.6c0.7,3.5,2,7,3.8,10.2c2.5,4.8,5.9,9.2,8.8,13.5c0.3,0.4,0.8,0.5,1.2,0.2 c0.4-0.3,0.5-0.8,0.2-1.2C209.2,360.7,206.2,356.2,203.7,351.5z M199.3,335.2C199.3,335.2,199.4,335.2,199.3,335.2 C199.3,335.2,199.3,335.2,199.3,335.2L199.3,335.2z M292.1,329.6c-0.3,0.1-0.6,0.3-0.6,0.6c0,0,0,0.1,0,0.2l0,0c0,0,0,0,0,0v0l0,0 c0,0.1-0.1,0.1-0.1,0.2c-0.4,1.1-1.4,3.9-1.5,4.1c-0.6,1.4-1.2,2.7-1.8,4c-0.9,2-1.9,4-2.9,6c-1.7,3.4-3.3,6.8-5,10.3 c-1.6,3.4-3.3,6.9-4.9,10.3c-1.4,2.9-2.9,5.8-4.4,8.7c-0.2,0.4-0.1,1,0.4,1.2c0.4,0.2,1,0.1,1.2-0.4c2.6-4.8,5.1-9.6,7.6-14.5 c1.2-2.4,2.4-4.9,3.6-7.3c1.2-2.4,2.3-4.9,3.5-7.4c0.8-1.7,1.6-3.4,2.3-5.1c0.8-1.7,1.5-3.4,2.2-5.2c0.1-0.3,1-3.1,1.4-4.3l0.2-0.5 c0-0.1,0-0.1,0-0.1c0-0.4-0.1-0.6-0.2-0.6C292.8,329.6,292.5,329.5,292.1,329.6z M291.4,330.2L291.4,330.2c-0.4-0.1-0.3,0-0.1,0.2 l0-0.1C291.4,330.3,291.4,330.3,291.4,330.2z M405.5,420.9c-0.4-0.3-0.9-0.3-1.2,0.1c-3.2,3.6-7.6,11.2-11.6,19.9 c-2.1,4.5-4.1,9.4-5.7,14.2c-1.5,4.3-2.7,8.5-3.5,12.3c-1.2,5.3-1.5,9.9-0.8,13c0.1,0.5,0.6,0.8,1.1,0.7c0.5-0.1,0.8-0.6,0.7-1.1 c-0.5-2.4-0.3-5.7,0.5-9.7c0.8-4.3,2.3-9.3,4.1-14.4c1.7-4.7,3.6-9.5,5.6-14c3.8-8.5,7.9-16,10.9-19.6 C405.9,421.7,405.9,421.2,405.5,420.9z M237.3,410.3C237.3,410.3,237.3,410.3,237.3,410.3C237.3,410.3,237.3,410.3,237.3,410.3 L237.3,410.3L237.3,410.3z M216.4,106c-0.2-0.4-0.2-0.7-0.1-0.8c0.1-0.5,0.4-0.6,0.8-0.7c0.1,0,0.4,0,0.7,0.2 c0.4,0.2,1.7,1.6,2.2,2.1c0.4,0.4,0.7,0.8,1.1,1.2c0.3,0.4,0.6,0.9,0.9,1.3c0.5,0.9,1,1.9,1.3,2.9c0.2,0.5-0.1,1-0.5,1.1 c-0.4,0.2-0.9-0.1-1.1-0.5c-0.3-0.7-0.7-1.3-1.1-1.9c-0.3-0.5-0.7-0.9-1-1.3c-0.3-0.4-0.7-0.9-1.1-1.3c-0.3-0.3-0.7-0.9-1.1-1.4 c-0.1-0.1-0.2-0.3-0.3-0.5C216.7,106.4,216.5,106.2,216.4,106z M216.9,106.3c-0.1-0.1-0.2-0.2-0.2-0.1 C216.6,106.3,216.7,106.3,216.9,106.3z M250,108.7L250,108.7C250,108.6,250,108.6,250,108.7l0-0.1 C249.9,108.5,249.9,108.6,250,108.7L250,108.7L250,108.7z M249.2,109.9c-0.3,0.5-0.5,1-0.8,1.5c-0.2,0.5-0.4,1.1-0.6,1.6 c-0.4,1.1-0.6,2.2-0.9,3.3c-0.1,0.5,0.1,0.9,0.6,1.1c0.5,0.1,0.9-0.1,1.1-0.6l2.5-6c0.1-0.2,0.7-1.4,0.8-1.9c0.1-0.5,0-0.8-0.2-0.9 c-0.3-0.4-0.9-0.4-1.3-0.1c-0.2,0.2-0.3,0.4-0.3,0.7l0,0c0,0,0,0.1,0,0.1c0,0.1,0.1,0.2,0.1,0.3c-0.1-0.1-0.1-0.2-0.2-0.3 c-0.1,0.1-0.1,0.2-0.2,0.2C249.5,109.4,249.2,109.8,249.2,109.9z M217.4,243.7c0-0.4,0-0.9,0-1.3c-0.1-1.2-0.3-2.3-0.7-3 c-0.2-0.4-0.8-0.6-1.2-0.4c-0.4,0.2-0.6,0.8-0.4,1.2c0.1,0.3,0.1,0.6,0.2,1c0,0.6,0,1.2-0.1,1.9c0,0.4-0.1,0.9-0.1,1.4 c0,0.7,0,1.5,0,2.1c0,0.7,0.1,1.4,0.2,1.9c0.1,0.5,0.5,0.8,1,0.7c0.5-0.1,0.8-0.5,0.7-1c-0.1-0.9,0.1-2.1,0.3-3.4 C217.3,244.5,217.4,244.1,217.4,243.7z M188.3,140.6c5.8-0.7,11.2-2.5,16.5-4.8c2.4-1,4.7-2.2,7-3.3c0.7-0.3,2-0.9,2.2-1.8 c0.3-1.3-0.7-3.3-0.9-4.6c-0.1-0.8,0.2-2.1-0.1-2.8c0,0-1.6,1.1-1.6,1.1c-1.1,0.7-2.2,1.3-3.4,1.9c-3.4,1.7-7.1,3-10.6,4.4 c-7.4,2.8-15,5.1-21.9,9c-1.5,0.9-3,1.8-4.5,2.9c-0.2,0.2-1.4,0.8-1.5,1.2l2.6,0.2C177.2,140.5,182.7,141.3,188.3,140.6z" fill="inherit" fill-rule="evenodd"/></g></svg>