<?xml version="1.0" encoding="UTF-8"?><svg xmlns="http://www.w3.org/2000/svg" xmlns:xlink="http://www.w3.org/1999/xlink" height="498.9" preserveAspectRatio="xMidYMid meet" version="1.0" viewBox="-0.9 -4.0 371.6 498.9" width="371.6" zoomAndPan="magnify"><g id="change1_1"><path clip-rule="evenodd" d="M320.2,237.7c-7.8-24.1-3.9-52-4.6-76.9c-1.2-45.8-12.2-117.3-51.8-147c-21.4-16-54.2-17.8-78-6.8 c-2.1,1-13,10.3-18.5,14.8l0-1.1c0.1,0-12-4.1-13.7-4c-10.1,0.5-20.3,3.9-29.6,7.8c-27.2,11.2-48.2,30.6-64.3,55 c-39.5,59.9-21.1,107.1-32.9,171.1C22.2,275.6,3.1,297.2,0,321.3c-0.9,6.8,11.8,79.8,33.2,90.9c17.2,8.9,43.2-42.9,47.6-44.2 c12.7-3.9,83.6-25.9,88.7-33.9l-0.2-30.2c7.9,19.5,15.2,39.6,27.6,49.3c29,22.6,83.6,43.6,116.2,39.4c9.2-1.2,42.4-23.3,46-35.2 C370.7,318.5,330.9,270.7,320.2,237.7z" fill="#218834" fill-rule="evenodd"/></g><g clip-rule="evenodd" fill-rule="evenodd" id="change2_1"><path d="M279.5,324.7c-24.7-5.3-62-2.4-96.6,2.5c-20.4,2.9-91.3-6.3-130.2,18.5C5.5,375.9,0.4,473.7,8.3,478.5 c27.6,16.4,350.2,14,352.2-17.2C363.4,416,332.6,336.2,279.5,324.7z" fill="inherit"/><path d="M72.1,170.7l12.8-2.8c1.8-17.6,8.8-34,16.1-49.8c5.2-11.3,9.7-23.9,17.7-33.6c14-17.1,41.5-27,62.9-22.4 c25.2,5.3,61.2,27.7,78.7,46.3c6.9,7.4,14.5,14.9,20.4,23.1c1.4,2,9.2,22.8,9.2,22.6c2.2-9.4,13,9.4,9.1-3.7 c-1.3-4.4-17.1-44.7-18.3-47.5C263.7,58.2,225.6,29,176.7,38.2c-49.5,9.3-88.8,38-101.3,88.3c-2.4,9.7-4.2,20-3.8,30 C71.6,159.3,72.2,168.3,72.1,170.7z" fill="inherit"/></g><g id="change3_1"><path clip-rule="evenodd" d="M270.5,220c-4.5,13.1-11.3,25.6-20.3,37.2c-9.5,12.1-17.7,20.2-25.9,25.3c-0.4,7-0.6,13.9-0.5,20.9 c0.4,25.8,9.1,32.9-14.6,43.2c-4.6,2-9.3,3.5-14.1,4.8c-7.8,2-15.6,2.9-23.6,2.1c-5.1-0.5-10.2-1.5-15.1-2.7 c-25.2-6.4-11.8-16.4-9.7-42.5c0.7-8.4,0.6-17,0.5-25.5c0-0.1,0-1.2,0-2.6c-9.9-3.1-19.1-7.4-26.9-15.3c-6.9-7.1-12-16.4-15.9-26.3 C74.9,238,39.3,201,62.2,172.8c6.8-8.4,21.3-6.2,29.8-0.9c-0.3-9.3,35.3-69.6,45.9-84.3c5.3-7.3,11.7-18.4,21.3-20.5 C168.7,65,194,90.4,204.2,95c17.9,8.1,44.2,9.6,58.7,24.1c8.1,8.1,9.4,22,11.6,32.7c0,0.2,0.1,0.4,0.1,0.6c9.1-6.1,21.8-7,28.5,3.5 C319.2,180.8,295.3,213.3,270.5,220z" fill="#eed3c4" fill-rule="evenodd"/></g><g id="change1_2"><path clip-rule="evenodd" d="M200.4,213.3c-2.5,1.9-4.7-0.6-7.2,0.1c-1.8,0.5-2.8,3.1-4.9,3c-2.4-0.1-2.8-3.7-5.1-4 c-3.4-0.4-6.9,4.8-10.4,2.4c-5.1-3.5,9.3-19.2,14.1-20.6c4.7-1.4,12.2,6.8,14.4,12.1C202.2,208.4,202.6,211.7,200.4,213.3z" fill="#218834" fill-rule="evenodd"/></g><g id="change2_2"><path clip-rule="evenodd" d="M282.5,301.1c1.7,3.8,2.7,7.9,2.5,12.9c0,0.5-0.5,1-1,1c-0.5,0-1-0.5-0.9-1c0-4.7-1-8.5-2.6-12 c-2.6-5.6-6.4-10.4-9.4-16.7c-1.2-2.5-1.9-5.1-2.3-7.8c-0.6-3.9-0.6-8-0.6-12c0-1.2-0.2-8.2,0.3-12.2c0.2-1.2,0.4-2.1,0.7-2.7 c0.2-0.4,0.5-0.7,0.8-0.9c0.5-0.3,1.1-0.1,1.4,0.3c0.3,0.4,0.2,1-0.3,1.3c-0.2-0.2-0.2,0.5-0.3,1c-0.2,1-0.3,2.5-0.3,4.1 c-0.1,3.8,0.1,8.1,0.1,9c0,3.8,0.1,7.7,0.7,11.5c0.4,2.5,1.1,4.9,2.1,7.2C276.2,290.6,280.1,295.5,282.5,301.1z M271,251.4 C271,251.4,271,251.5,271,251.4C271,251.5,271,251.5,271,251.4z M321.5,326.9c-2.5-8.8-1.3-18-2.4-26.8c-0.3-2.3-0.7-4.6-1.4-6.8 c-0.7-2.2-1.7-4.4-2.8-6.4c-2.5-4.6-5.7-8.8-8-13.5c-1.4-2.8-2.4-5.8-3.2-8.8c-1.2-4.6-1.9-9.3-2.5-14c-0.2-2-1-5.2-1.2-7.9 c-0.1-1.1,0-2.2,0.3-3c0.2-0.5-0.1-1.1-0.6-1.3c-0.5-0.2-1.1,0.1-1.3,0.6c-0.4,1-0.5,2.4-0.4,3.8c0.1,2.8,0.9,6,1.1,8.1 c0.5,4.8,1.2,9.7,2.4,14.4c0.8,3.2,1.9,6.3,3.3,9.3c2.3,4.7,5.5,9,8.1,13.6c1,1.9,2,3.8,2.6,5.9c0.7,2.1,1.1,4.2,1.4,6.4 c1.2,8.9,0.2,18.2,2.9,27.1c0.1,0.5,0.7,0.8,1.2,0.7C321.4,328,321.7,327.4,321.5,326.9z M48.7,247.7c0.2,4.5,0.1,9.1-0.2,13.6 c-0.3,4.5-1,9-2,13.5c-0.7,3.1-1.8,6.1-3.1,8.9c-2.5,5.6-5.8,10.9-8.9,16.3c-3,5.3-5.8,10.6-7.1,16.6c-0.9,4-0.9,8-0.3,12 c0.9,6.1,3.1,12.1,5.6,17.6c0.2,0.5,0,1.1-0.5,1.3c-0.5,0.2-1,0-1.3-0.5c-2.6-5.6-4.9-11.8-5.9-18c-0.7-4.3-0.7-8.6,0.2-12.9 c0.7-3.1,1.7-6.1,3-8.9c2.5-5.6,5.8-10.9,8.8-16.3c3-5.2,5.7-10.6,7.1-16.6c1-4.3,1.7-8.7,2-13.1c0.4-4.4,0.4-8.9,0.3-13.3 c0-1.7-0.1-3.5-0.2-5.3c-0.1-1.2-0.2-2.3-0.3-3.5c-0.1-0.9-1-2.6-1.1-3.4c-0.1-0.8,0.1-1.3,0.5-1.5c0.2-0.2,0.6-0.3,1.2-0.2 c0.5,0.2,0.8,0.7,0.7,1.2c-0.1,0.2-0.2,0.4-0.3,0.5c0.3,0.9,1,2.3,1.1,3.1c0.1,1.2,0.2,2.4,0.3,3.6 C48.6,244.1,48.7,245.9,48.7,247.7z M47,235.2C46.9,235.2,47,235.3,47,235.2c0,0.1,0,0.1,0,0.2C47.1,235.3,47.1,235.2,47,235.2z M80.1,252.5c0,0-0.1,0.1-0.1,0.1C80,252.6,80.1,252.5,80.1,252.5z M80.2,251.2c-0.3-0.5-1-0.5-1.4-0.2c-0.2,0.2-0.5,0.5-0.7,1.1 c-0.3,0.7-0.5,1.7-0.8,3.1c-1.1,4.9-2.2,13.3-2.6,14.9c-1.1,4-3,7.9-4.8,11.8c-1.2,2.7-2.4,5.3-3.4,8.1c-1.1,3.1-1.8,6.2-1.9,9.4 c0,1.8,0.2,3.4,0.6,5.1c0.7,3.2,2.1,6.2,3.3,9.3c1.1,2.9,2.1,5.8,2.2,9c0,0.5,0.4,1,1,1c0.5,0,1-0.4,1-1c0-3.4-1-6.6-2.1-9.8 c-1.1-3-2.4-5.9-3.1-9c-0.3-1.5-0.5-3-0.4-4.5c0.1-2.9,0.9-5.8,1.9-8.6c0.9-2.6,2.1-5.2,3.3-7.8c1.9-4.1,3.7-8.1,4.8-12.2 c0.4-1.4,1.2-8.2,2.1-13.2c0.3-1.8,0.6-3.4,0.9-4.3c0.1-0.3,0.1-0.7,0.2-0.6C80.4,252.2,80.5,251.6,80.2,251.2z M103.3,292.9 c-0.5-2.1-1-4.3-1.4-6.5c-0.1-0.7-0.5-2.5-0.5-4.1c0-0.5,0-1,0.1-1.4c0.1-0.2,0.1-0.3,0.2-0.4c0.5-0.3,0.6-0.9,0.3-1.4 c-0.3-0.5-0.9-0.6-1.4-0.3c-0.8,0.4-1.2,1.4-1.4,2.7c-0.2,1.9,0.2,4.4,0.3,5.3c0.4,2.7,0.9,5.3,1.5,7.8c0.6,2.5,1.2,5,1.4,7.6 c0.2,2.1,0.3,4.2,0,6.5c-0.1,0.5,0.3,1,0.8,1.1c0.5,0.1,1-0.3,1.1-0.8c0.6-3.3,0.5-6.3,0.1-9.3C104.3,297.4,103.8,295.1,103.3,292.9 z M169.1,146.6c0,0.1,0.1,0.1,0.1,0.1L169.1,146.6L169.1,146.6z M168.7,144.7c0.1,0,0.5-0.4,1.2-0.1c0.3,0.1,0.5,0.4,0.6,0.7 c0.8,0.4,2.1,0.8,2.6,1c1.3,0.7,2.5,1.4,3.6,2.3c0.8,0.6,1.5,1.3,2.1,2.1c1.6,2.1,2,4.4,1.8,6.7c-0.3,3.2-2,6.4-3.6,9.1 c-0.3,0.5-0.8,0.6-1.3,0.4c-0.5-0.3-0.6-0.8-0.4-1.3c1.3-2.5,2.7-5.5,2.9-8.4c0.1-1.8-0.2-3.5-1.4-5c-0.6-0.8-1.4-1.5-2.2-2.2 c-0.9-0.7-1.8-1.3-2.7-1.8c-0.6-0.4-2.1-1.2-2.8-1.6c0.1,0,0.2,0,0.3-0.1c-0.1,0-0.2,0-0.3-0.1c0,0-0.1,0-0.1,0c0,0,0,0.1,0,0.1 c-0.1,0-0.1-0.1-0.2-0.1C167.9,145.8,168.6,144.8,168.7,144.7z M170.3,145.2c0-0.1-0.1-0.2-0.2-0.3c0,0-0.1-0.2-0.1-0.1 C169.9,144.9,170,145.1,170.3,145.2z M198.4,157.7c0.5-0.2,0.6-0.8,0.4-1.3c-0.8-1.6-0.9-3.2-0.6-4.7c0.3-1.2,0.8-2.3,1.5-3.4 c0.7-1.1,1.5-2.1,2.4-3.1c0.5-0.5,0.9-1,1.4-1.5c0.5-0.5,1-1,1.4-1.4c0.3-0.3,1.2-1.1,1.4-1.3c4.1-3.9,4.8-6.7-1.3-1.5 c0,0,0,0-0.1,0.1c-0.3,0.2-1.1,0.9-1.4,1.1c-0.6,0.5-1.1,0.9-1.6,1.4c-0.5,0.5-1,1-1.5,1.5c-1,1.1-2,2.2-2.8,3.4 c-0.8,1.4-1.4,2.8-1.6,4.3c-0.3,2,0,4,1.1,6C197.3,157.8,197.9,158,198.4,157.7z M67.2,184.3c0-0.1-0.1-0.1-0.1-0.1 C67.1,184.2,67.1,184.2,67.2,184.3L67.2,184.3z M90.9,200.7c0.3,0.4,0.3,1-0.1,1.4c-0.4,0.3-1,0.3-1.4-0.2c-1.6-1.9-3.6-3.6-5.7-5.1 c-1.6-1.1-3.2-2.2-4.9-3.2c-0.3-0.2-0.7-0.4-1-0.6c0.2,0.6,0.5,1.2,0.7,1.9c0.4,1.2,0.8,2.4,1.1,3.6c0.6,2.1,1.2,4.2,1.7,6.4 c1.2,4.9,2,10,3.2,14.9c0.1,0.5-0.2,1-0.7,1.2c-0.5,0.1-1-0.2-1.2-0.7c-0.6-2.1-1.2-4.2-1.7-6.3c-0.7-3-1.4-5.9-2.2-8.9 c-0.5-2-1-3.9-1.5-5.9c-0.3-1.2-0.7-2.4-1-3.6c-0.2-0.8-0.5-1.6-0.7-2.4c-0.1-0.4-0.2-1.1-0.3-1.7c-0.5-0.3-1-0.6-1.5-0.9l-5.3-3.1 c-0.1-0.1-1.7-1.2-2.3-1.6c-0.1-0.1-0.2-0.2-0.3-0.2c-0.8-0.7-0.1-1.5-0.1-1.6c0.4-0.3,0.9-0.3,1.3,0v0c0,0,0,0,0.1,0 c0,0,0,0,0.1,0.1l0,0v0l0,0c0,0,0,0,0.1,0c0.6,0.4,2.1,1.3,2.2,1.4l5.4,2.9c0.4-0.3,0.8-0.2,1.1,0c0.3,0.1,0.6,0.5,0.9,1.2 c1.1,0.6,2.2,1.2,3.2,1.9c1.7,1,3.4,2.2,5,3.4C87.3,196.7,89.3,198.6,90.9,200.7z M67.4,184.8c0,0.3,0,0.6-0.2,0.8 C67.4,185.4,67.5,185.1,67.4,184.8z M293.4,164.1c0.3,0.4,0.2,1-0.3,1.3c-2.4,1.6-4.8,3.3-7,5.1c0,0.1,0,0.3,0,0.5 c0,0.1,0,0.1,0,0.2v0c0,0.5-0.1,1.7-0.1,1.8l-0.4,5.5l-1.2,13.6c0,0.5-0.5,1-1,0.9c-0.5,0-1-0.5-0.9-1c0-2.3,0.1-4.6,0.2-6.9 c0.1-1.4,0.2-2.7,0.3-4.1c0.1-0.9,0.2-1.8,0.3-2.7l0.7-5.5c0-0.1,0-0.2,0.1-0.5c0,0-0.1,0.1-0.1,0.1c-1.2,1-2.3,2-3.5,3.1 c-1.7,1.6-3.3,3.2-4.8,5c-0.7,0.8-1.3,1.5-1.9,2.4c-0.6,0.8-1.2,1.6-1.7,2.5c-0.1,0.2-0.1,0.5-0.2,0.8c-0.1,0.5-0.2,0.9-0.4,1.2 c-0.3,0.4-0.6,0.7-1.2,0.7c-0.5,0-1-0.4-1.1-0.9c0-0.4,0.2-0.8,0.6-1c0,0,0-0.1,0-0.1c0-0.2,0-0.4,0.1-0.6c0-0.5,0.2-0.9,0.3-1.2 c0.5-0.9,1.1-1.8,1.7-2.7c0.6-0.9,1.3-1.7,1.9-2.5c1.5-1.9,3.2-3.7,4.9-5.3c1.2-1.1,2.4-2.1,3.6-3.1c3.1-2.5,6.5-4.7,9.9-6.8 C292.5,163.5,293.1,163.6,293.4,164.1z M269.6,186.2c-0.1,0-0.1,0.1,0,0.1C269.6,186.3,269.6,186.2,269.6,186.2z M190,290.7 c-20.4-0.6-41.8-9.5-43.1-10.5c3.5,4.2,27.2,38.8,62.6,18.9c3.5-2,14-11.6,14.5-16.2C224,282.9,207.1,291.3,190,290.7z M165.1,243.4 c6,5.2,15-2.2,19.1-1.5c4.7,0.8,26.1,14.1,27.4,5.1c2.3-15.8-14.5-19.9-26.6-19.1C172.4,228.7,162.9,241.5,165.1,243.4z M157.3,186.4c0.4-0.4,0.3-1,0-1.4c-3.4-3.3-7.4-7.2-11.9-9.7c-1.2-0.7-2.5-1.3-3.8-1.8c-2-0.7-4.2-1.1-6.3-1.1 c-0.6,0-6.5,0.9-9.5,2.1c-1.1,0.4-1.8,0.9-2.1,1.4c-0.2,0.4-0.3,0.9-0.1,1.3c0.2,0.5,0.8,0.8,1.3,0.6c0.4-0.2,0.6-0.5,0.6-0.9 c0,0.1,0,0.1-0.1,0.1c0,0,0,0,0.1-0.1c0,0,0.1,0,0.1-0.1c0.7-0.5,2.2-0.8,3.7-1.1c2.6-0.6,5.6-0.9,6-0.9c1.9,0,3.7,0.4,5.5,1 c1.2,0.4,2.4,0.9,3.5,1.6c4.4,2.3,8.4,5.9,11.8,9C156.3,186.9,156.9,186.8,157.3,186.4z M237.8,173.1c-2.9-1.2-5.4-1.5-7.7-1.2 c-2.4,0.3-4.7,1.3-7.2,2.7c-2.7,1.5-5.6,3.6-9.3,6c-0.5,0.3-0.6,0.9-0.3,1.4c0.3,0.5,0.9,0.6,1.4,0.3c3.7-2.2,6.7-4.1,9.4-5.6 c2.2-1.2,4.3-2.1,6.4-2.3c2-0.2,4.1,0,6.6,1c2.6,1,5.6,2.7,9.3,5.3c0.4,0.3,1,0.2,1.3-0.2c0.3-0.4,0.2-1-0.2-1.4 C243.6,176.1,240.5,174.2,237.8,173.1z M154.2,160.6c2.2,0.5,12.5,2.6,13.8-0.6c1-2.6-5-8.3-6.7-7.6c-4.4,1.8-12.8,1.2-26.9-13 c-2-2-11.3-8.5-10.9-1.3C123.8,143,141.9,158,154.2,160.6z M224.4,150.4c-8.8,3.6-19.2,2.5-19.2,3.5c0.4,6.5,25.6,5.6,35.7,0.1 c3.9-2.1,9.8-6.4,8.1-11.7C247.1,136.5,236,145.6,224.4,150.4z" fill="inherit" fill-rule="evenodd"/></g><g id="change4_1"><path d="M230.3,375.9c-11,4.1-38.2-14.4-45.7-20.9c-0.9,2.7-8.8,12-9.3,12.6c-9.4,10.8-33,22.8-48.2,17.2 c-21.2-7.7,0-48,15.5-56.5c6.5,4,33.6,20,40.5,24.8c2.3-2.5,31.2-26,43.9-32.9C231,318,245.5,370.3,230.3,375.9z M181.3,236 c7.2,1.1,19.7,0.9,26.9-1.2c0.9-0.3-6.3-8.3-21.1-8.3c-12.4,1.8-12.9,5-15.2,6.6C172.9,235.2,179.4,235.7,181.3,236z M48.5,399.7 L48.5,399.7C48.5,399.7,48.5,399.7,48.5,399.7L48.5,399.7C48.5,399.6,48.6,399.6,48.5,399.7L48.5,399.7 C48.5,399.6,48.5,399.6,48.5,399.7z M59,433.2c-0.6-3.9-1.4-7.8-2.4-11.7c-0.8-2.9-1.6-5.8-2.6-8.7c-1-2.9-2-5.7-3.2-8.5 c-0.2-0.4-1.8-3.3-2.3-4.6l0,0c0,0.1-0.2,0.3-0.2,0.3c0.1-0.1,0.1-0.3,0.2-0.4c0,0,0-0.1,0-0.1c0,0,0,0,0,0c0-0.3-0.1-0.7-0.4-0.9 c-0.5-0.3-1.1-0.2-1.4,0.3c-0.1,0.2-0.3,0.7,0,1.4c0.4,1.3,2.1,4.3,2.2,4.7c1.1,2.8,2.1,5.6,3,8.4c0.9,2.8,1.7,5.7,2.4,8.6 c1,3.8,1.7,7.6,2.3,11.5c0.6,3.9,1.1,7.7,1.4,11.6c1.1,11.7,1.2,23.5,1.6,35.3c0,0.5,0.5,1,1,0.9c0.5,0,1-0.5,0.9-1 c-0.2-11.8-0.1-23.7-1-35.5C60,441,59.6,437.1,59,433.2z M296.3,475.6c0,0.1,0,0.1,0,0.2C296.3,475.7,296.3,475.7,296.3,475.6z M309.1,388.8c-0.5-0.2-1.1,0-1.3,0.5c-4.3,9.2-7.2,18.8-9.2,28.6c-1,4.9-1.8,9.8-2.3,14.8c-0.5,4.9-0.9,9.9-1.1,15l-0.5,19.1 l-0.2,6.2c0,0.7-0.3,2.4-0.3,2.9c0,0.6,0.3,0.8,0.4,0.9c0.3,0.2,0.7,0.3,1,0.1c0.1,0,0.4-0.2,0.6-0.7c0-0.1,0.1-0.2,0.1-0.3 c0,0-0.1,0-0.1,0c-0.1,0-0.2-0.2-0.1-0.5c0.1,0.1,0.2,0.2,0.2,0.3c0-0.2-0.1-0.3-0.2-0.5c0.1-0.7,0.4-1.6,0.4-2l0.3-6.3l0.8-19.1 c0.2-5,0.6-9.9,1.1-14.8c0.5-4.9,1.2-9.8,2.2-14.6c1.9-9.6,4.6-19.1,8.7-28.2C309.8,389.6,309.6,389,309.1,388.8z" fill="#fcf3e7"/></g></svg>