<?xml version="1.0" encoding="UTF-8"?><svg xmlns="http://www.w3.org/2000/svg" xmlns:xlink="http://www.w3.org/1999/xlink" height="454.5" preserveAspectRatio="xMidYMid meet" version="1.0" viewBox="-0.2 -2.5 402.8 454.5" width="402.8" zoomAndPan="magnify"><g id="change1_1"><path d="M5.3,242.6c-0.8-0.4-5.5-2.7-5.3-4.1c0.2-1.4,3.9-3.7,4.8-4.5c4.2-3.8,8.3-7.8,12.4-11.9 c17-17.1,26.3-38.8,48-51.4c6.3-3.7,24.7-12.6,30.9-3.4l14.5,24.4c-0.9,17.9-2.5,36.1-6.2,53.7c-1.9,9.1-4.5,19.3-10.5,26.6 c-5,6.1-12.4,5.5-17.8,10.5c-2.3,2.1-7.7,12.7-9.1,13.3c-0.9,0.4-4.4-3.8-4.9-4.3c-4.7-5-8.4-10.9-13.2-15.8 c-4.2-4.3-8.5-3.6-13.3-0.6c-1.1,0.7-5.3,4.6-6.8,3.1c-4.4-4.5-0.1-22.8-4-27.3C20.7,246.2,10.7,245.5,5.3,242.6z M121.3,146.2 c12.6,3.7,29.1-12.3,37.1-19.6c20.6-18.6,38-41.6,51.5-66.3c13.9,30.8,31.7,61.2,60.1,80.6c12.5,8.6,35.8,17.8,47.3,2.6 c8.9-11.8,21.8-45.5,4.6-92.3c-7.6-20.7-37.6-34.9-48.2-42.8c-13.6-10.1-30.6-10.9-45.8-3.9c-4.7,2.2-9.3,5.2-12.9,9 c-2.6-2.5-5.7-4.4-9.2-5.8c-16.2-6.3-34.4-0.9-49,6.9c-8.1,4.3-15.4,9.9-21.9,16.4c-5.3,5.4-10,11.4-13.9,17.9 c-13.8,22.7-31.6,64.8-9.9,88.6C113.9,140.6,117.2,145,121.3,146.2z M315.1,171.9l-11.3,14.2c1.1,0.6-1.3,2.2-1.6,3.5 c-0.6,2.6-0.9,5.2-1,7.9c-0.5,7.8-0.1,15.7,0.8,23.4c3.2,25.9,13.7,51.9,37.4,65.3c9.9,5.6,5.1-7.5,14.1-11.9 c6.5-3.2,13.6,1.9,19.2-0.3c2.4-0.9,3.6-8.7,4.7-10.9c4.3-8.7,17.1-10.2,18.5-19.8C402.6,199.4,350.3,176.4,315.1,171.9z M377,366 c-26.7-24.1-75.3-31.1-109.2-40c0.7-0.3-97-3.8-111-2.4C73,332.1,37.2,356.3,22.2,405.5c-2.9,9.4-10.7,30.8-2.4,40.1 c5.8,6.4,360.3,1.8,360.3,1.8S402.3,388.7,377,366z" fill="#c71e28"/></g><g id="change2_1"><path d="M324.1,153.5c-4.4,12.8-13.1,29.7-26.4,35.8c0.7,7.7-5,54.8-19.9,70.5c-7.7,8.1-28.5,12.6-30.8,12.9 c0.2,10.9,2.5,21.9,5.6,32.3c1.5,5.2,3.4,10.4,5.8,15.2c0.6,1.2,3.6,4.7,3.6,6.1c0,1.6-4,4.5-4.9,5.5c-5.7,5.6-12,10.4-19.2,13.7 c-20.4,9.4-45.2,10.2-65.9,1.5c-6.6-2.8-14.9-6.3-19.5-12.2c-2.6-3.3,1.9-5.2,4.2-6.9c4.9-3.6,8.8-7.7,11.6-13.2 c6-12,8.2-26.8,8.2-40.1c0-0.2,0-0.3,0-0.5c-11.3-0.4-53-24.6-51.6-60.7c0.2-5.5-1.2-11-1.2-16.6v0l-0.1,2.4 c-24,6.6-33-29.7-32.8-47.2c0.1-6.3,1-14.6,6.1-19c7.8-6.8,19.9,3.2,24.9,9.1l1-0.7c-0.1,0.2-0.2,0.5-0.2,0.8 c-0.1,0.1-0.3,0.2-0.4,0.2l0.1,0.1c0,0,0.1,0.1,0.1,0.1l0.1,0.1c0-0.2,0.1-0.4,0.1-0.6c10.2-6.4,19.4-15.2,27.9-23.3 C166.1,104,193.1,73,208,56.9c3.1-3.3,10.6,25.8,26.9,39.8c17.4,15,43.9,15.4,51.1,23.2c4.4,4.7,8.1,9.2,10.5,14.5 c0.5-0.5,1-0.9,1.6-1.4c6.9-5.7,20-10.1,26.3-1C328.7,138.3,326.4,146.9,324.1,153.5z M122.6,141.6l0.5-0.3 C122.9,141.2,122.7,141.3,122.6,141.6z" fill="#e2b688"/></g><g id="change1_2"><path clip-rule="evenodd" d="M224.6,187.6c-1.7,0.1-3.3-0.5-4.9-0.2c-2.2,0.3-4.1,1.8-6.4,1.6c-2.2-0.2-3.1-2.8-5.2-3 c-2.7-0.3-5.4,2.7-8.2,1.3c-1.7-0.9-1-3.4-0.4-4.8c1.8-3.9,4.9-7.3,7.6-10.7c0.5-0.6,1.9-6.7,5.4-6.7c4.4,0,11,6.2,12.1,7.3 c1.3,1.3,2.6,2.7,3.8,4.2c0.8,1,1.5,2,2,3.2C232.3,183.9,228.6,187.2,224.6,187.6z" fill="#c71e28" fill-rule="evenodd"/></g><g id="change3_1"><path clip-rule="evenodd" d="M261.3,318.4l19.9,13.7c0,0-23.8,61.9-36.1,65c-10.3,2.6-29.9-31.8-36-42.9c-6.2,9.1-32.8,46.7-43.5,42.9 c-12.2-4.2-28.2-70.4-28.2-70.4l20.1-10.7l15.4-15.5l35.5,48.9l44-51L261.3,318.4z M84.2,405.7c-1.7-3.5-3.7-7-6.3-10.4 c-0.9-1.1-5.1-7-8-10c-0.8-0.9-1.6-1.5-2.1-1.9c-0.5-0.3-0.9-0.4-1.2-0.4c-0.5,0.1-0.9,0.6-0.9,1.1c0.1,0.5,0.4,0.8,0.9,0.9v0 c0-0.1,0.1,0,0.1,0c0,0,0,0,0.1,0c0,0,0,0,0,0c0.1,0.1,0.2,0.3,0.4,0.4c0.9,0.7,2,2.1,3.2,3.7c2.4,3.1,5,6.8,5.7,7.6 c2.4,3.3,4.3,6.6,5.9,10c1.1,2.4,2.1,4.8,2.9,7.2c3.1,9.1,4.6,18.7,6.7,28.8c0.1,0.5,0.6,0.9,1.1,0.8c0.5-0.1,0.9-0.6,0.8-1.1 c-2-10.2-3.2-20-6.3-29.2C86.4,410.7,85.4,408.2,84.2,405.7z M66.7,385.1C66.7,385.1,66.7,385.1,66.7,385.1L66.7,385.1 C66.6,385.1,66.7,385.1,66.7,385.1L66.7,385.1L66.7,385.1z M345.2,384.1c-0.4-0.3-1-0.2-1.3,0.3c-4.6,6.9-9,14-12.7,21.4 c-2.5,4.9-4.6,10.1-6.4,15.4c-1.4,4.4-1.9,10.2-3.1,15.4c-0.5,2.2-1.1,4.3-2,6.1c-0.2,0.5-0.1,1.1,0.4,1.3c0.5,0.3,1.1,0.1,1.4-0.4 c1-1.9,1.7-4.1,2.3-6.5c1.2-5,1.8-10.8,3.3-15.1c1.1-3.2,2.4-6.4,3.7-9.5c1.4-3.1,2.8-6.2,4.4-9.2c3.1-6.1,6.7-11.9,10.3-17.7 C345.8,385,345.7,384.4,345.2,384.1z M153,167.4c11.3,10,25.3,7.4,34.4-6.1c5.5-8.2-0.6-19.1-22.1-14.9c-11,2.1-20.6,7.4-20.3,9.8 C145.5,160,150.3,165,153,167.4z M254.3,170.7c14.9-4.9,19.5-14.5,21.9-21c0.8-2.1,2-5.4,0.7-7.5c-1.2-2-4.1-2.8-6.1-3.5 c0,0-23.7-1.9-30.4,9.4C235.3,156.9,251.6,171.6,254.3,170.7z" fill="#fcf3e7" fill-rule="evenodd"/></g><g id="change4_1"><path clip-rule="evenodd" d="M75.9,186.3c0.1,0,0.1-0.1,0.2-0.1C76.3,186.3,76.1,186.4,75.9,186.3L75.9,186.3 C75.9,186.3,75.9,186.3,75.9,186.3z M62,200c2-2,3.9-4.1,5.9-6.1c1.3-1.3,2.6-2.7,4-4c0.3-0.3,2.9-2.7,3.9-3.5l-0.1,0l0,0 c0.1,0,0.1,0,0.2,0c0.1-0.1,0.2-0.2,0.2-0.1l0,0c0.1-0.1,0.2-0.1,0.3-0.2c0.2-0.3,0.2-0.6,0.2-0.7c0-0.2-0.1-0.4-0.2-0.6 c-0.1-0.2-0.3-0.3-0.6-0.4c-0.1,0-0.4-0.1-0.7,0.1c-0.1,0-0.3,0.2-0.5,0.4c-1.1,0.8-3.8,3.2-4.2,3.6c-1.4,1.3-2.8,2.6-4.1,4 c-2,2-4,4-6,6c-2.1,2.1-4.2,4.2-6.2,6.3c-3.1,3.2-6.2,6.4-9.1,9.8c-3.3,3.7-6.5,7.5-9.5,11.5c-0.3,0.4-0.2,1,0.2,1.4 c0.4,0.3,1,0.2,1.4-0.2c3-3.8,6.3-7.5,9.7-11.1c3-3.2,6.1-6.4,9.2-9.6C57.9,204.3,59.9,202.1,62,200z M81.6,197.6 c0.5-0.3,0.7-0.9,0.4-1.4c-0.3-0.5-0.9-0.7-1.4-0.4c-1.4,0.8-2.8,2.3-4,4.1c-2.3,3.6-4.2,8.4-5.5,11.1c-1.6,3.2-3.3,6.4-4.9,9.6 c-1.6,3.2-3.2,6.5-4.8,9.7c-3.1,6.5-6.1,13.1-8.9,19.7c-0.2,0.5,0,1.1,0.5,1.3c0.5,0.2,1.1,0,1.3-0.5c2.3-5.2,4.8-10.4,7.4-15.6 c1.9-3.9,3.8-7.7,5.8-11.6c1.9-3.9,3.8-7.7,5.8-11.6c1.1-2.3,2.5-6.2,4.3-9.5C78.8,200.4,80.1,198.5,81.6,197.6z M91.5,197.4 C91.5,197.4,91.5,197.5,91.5,197.4l0,0.1c0.2-0.1,0.4-0.2,0.2-0.3C91.6,197.3,91.5,197.4,91.5,197.4L91.5,197.4z M90.9,195.7 c-0.2,0-0.7,0-1,0.6c-0.1,0.2-0.3,0.6-0.4,1.3c-0.8,3-2.4,10.6-2.5,11.1c-0.7,3-1.4,5.9-2.1,8.9c-0.5,2-0.9,4-1.4,6 c-1.7,7.5-3.2,15-4.8,22.4c-0.1,0.5,0.2,1,0.7,1.2c0.5,0.1,1-0.2,1.2-0.7c1.8-7.4,3.6-14.9,5.3-22.3c0.5-2,0.9-4,1.4-6 c0.7-3,1.3-6,2-9c0.1-0.4,1.5-8.1,2.2-11c0-0.2,0.1-0.4,0.1-0.6c-0.1,0-0.2,0.1-0.3,0.1c0.1,0,0.3-0.1,0.4-0.2 c0-0.1,0.1-0.2,0.1-0.2l0,0c0.1-0.1,0.2-0.3,0.2-0.5C91.8,196.2,91.4,195.7,90.9,195.7z M209.9,34.3c0,0,0.1-0.1,0.1-0.1 C210,34.2,210,34.3,209.9,34.3z M120.6,123.8c0.5,0.3,1,0.1,1.3-0.4c8.1-15,16.6-31.3,27-45.7c2.8-3.8,5.7-7.5,8.7-11.1 c4.6-5.3,9.7-10.2,15.2-14.5c3.9-3,8.1-5.8,12.5-8.3c4.4-2.4,9-4.5,13.7-6.1c1.4-0.5,2.9-0.9,4.3-1.3c1.4-0.4,2.9-0.6,4.4-0.8 c0.3,0,0.7,0.2,1.1,0.3c0.5,0.2,1,0.3,1.4,0.2c0.5,0,0.9-0.2,1.3-0.7c0.3-0.4,0.3-1.1-0.2-1.4c-0.4-0.3-0.9-0.3-1.3,0.1c0,0,0,0,0,0 c0,0.1-0.1,0.1-0.2,0.1c-0.2-0.1-0.7-0.3-1-0.4c-0.5-0.2-1-0.3-1.4-0.2c-1.6,0.1-3.1,0.4-4.6,0.8c-1.5,0.4-3,0.8-4.5,1.3 c-4.9,1.6-9.6,3.6-14.1,6.1c-4.5,2.5-8.9,5.3-12.9,8.4c-5.7,4.3-10.9,9.3-15.6,14.8c-3.1,3.6-6,7.4-8.8,11.3 c-10.3,14.6-18.7,31-26.7,46.2C120,123,120.1,123.5,120.6,123.8z M135.3,66.9c3.4-4.8,7.2-9.4,11.4-13.6c1.8-1.8,3.6-3.5,5.5-5.2 c3.2-2.8,6.5-5.3,10.1-7.5c3.6-2.2,7.3-4.1,11.3-5.6c0.5-0.2,0.8-0.8,0.6-1.3c-0.2-0.5-0.7-0.8-1.3-0.6c-4.1,1.4-8.1,3.3-11.8,5.5 c-3.7,2.2-7.2,4.8-10.5,7.6c-2,1.7-3.8,3.5-5.6,5.4c-4.2,4.4-7.9,9.2-11.3,14.2c-0.3,0.4-0.2,1,0.2,1.3 C134.4,67.5,135,67.4,135.3,66.9z M283.3,102.1c-8.1-4.9-16.5-9.4-23.6-15.6c-3.5-3.1-6.7-6.6-9.4-10.8c-2.7-4.2-5.3-8.6-8.1-12.8 c-1.9-2.7-3.9-5.4-6.2-7.8c-0.9-1-1.9-1.9-2.9-2.8c-1-0.9-2.1-1.8-3.2-2.6c-0.6-0.4-1.7-1.4-2.6-2c-0.1-0.1-0.2-0.2-0.3-0.3 c-0.5,0.2-1,0-1.2-0.5c-0.5-0.9,0-1.4,0.2-1.6c0.2-0.2,0.6-0.4,1.1-0.2c0.2,0.1,0.6,0.3,1.1,0.6c1,0.6,2.3,1.8,3,2.3 c1.2,0.8,2.3,1.7,3.4,2.6c1.1,0.9,2.1,1.9,3.1,2.9c2.4,2.5,4.5,5.1,6.5,8c2.9,4.1,5.5,8.5,8.3,12.8c2.6,4,5.7,7.3,9,10.2 c7,6.1,15.2,10.6,23.1,15.5c8,5,15.7,10.4,21.6,18.2c0.3,0.4,0.2,1-0.2,1.3c-0.4,0.3-1,0.2-1.3-0.2 C298.7,112,291.1,106.8,283.3,102.1z M226.6,47.3c-0.2-0.1-0.3-0.2-0.3-0.1C226.3,47.4,226.4,47.4,226.6,47.3z M229.4,25.6 L229.4,25.6c0,0,0.1,0,0.2,0.1c0.1,0.1,0.3,0.1,0.5,0.1c-0.1,0-0.2,0.1-0.3,0.1c0,0.1,0.1,0.1,0.2,0.2c1.4,1.4,4.8,5,5.1,5.3 c2,2,4.1,3.8,6.3,5.6c2.2,1.8,4.4,3.5,6.7,5c8.2,5.6,15.5,10.2,22,14.7c7.6,5.2,14.2,10.2,20.4,16.4c7.1,7.2,13.5,16,20.1,28.5 c0.2,0.5,0.8,0.7,1.3,0.4c0.5-0.2,0.7-0.8,0.4-1.3c-6.5-12.9-13-21.9-20.1-29.3c-6.2-6.4-13-11.6-20.7-16.8 c-6.6-4.5-13.9-9-22.1-14.6c-2.3-1.5-4.5-3.1-6.6-4.9c-2.1-1.7-4.2-3.5-6.2-5.4c-0.3-0.3-3.7-3.8-5.1-5.2c-0.3-0.3-0.5-0.5-0.6-0.6 c-0.6-0.4-1.1-0.2-1.2-0.1c-0.5,0.3-0.6,0.9-0.3,1.4C229.2,25.5,229.3,25.6,229.4,25.6z M229.5,25.7c-0.1,0-0.1,0-0.2-0.1 c-0.2,0.2,0,0.3,0.3,0.2L229.5,25.7L229.5,25.7z M269.7,26.4c4.1,1.4,7.8,4.8,11.3,8.8c1.9,2.2,3.7,4.6,5.4,7.1 c2.9,4.1,5.4,8.2,7.5,11.2c0.3,0.4,0.9,0.6,1.3,0.3c0.5-0.3,0.6-0.9,0.3-1.3c-2-3.2-4.3-7.4-7.1-11.5c-1.7-2.5-3.5-5-5.5-7.3 c-3.8-4.3-8-7.7-12.5-9.1c-0.5-0.2-1.1,0.1-1.2,0.7C268.9,25.7,269.2,26.3,269.7,26.4z M335.5,247.3c-1.8-3.7-3.5-7.6-5-11.4 c-1-2.6-2.1-5.2-3.1-7.8l-4-10.3l-1.6-4.4c-0.1-0.4-0.3-1.5-0.5-1.8c-0.2-0.6-0.7-0.7-0.9-0.7c-0.3,0-0.5,0-0.8,0.3 c-0.1,0.1-0.3,0.3-0.3,0.8c0,0.1,0,0.3,0,0.4c0,0,0,0,0.1,0c0.1,0,0.2,0.1,0.2,0.4l0,0l-0.1,0c0,0,0.1,0.1,0.1,0.1 c0.1,0.4,0.1,1,0.2,1.3l1.5,4.5l3.8,10.4c1,2.6,2,5.2,3,7.8c1.6,3.9,3.3,7.8,5.3,11.5c2.2,4.2,4.7,8.3,7.6,11.9 c0.3,0.4,0.9,0.5,1.3,0.2c0.4-0.3,0.5-0.9,0.2-1.3C339.8,255.4,337.5,251.4,335.5,247.3z M319.6,212.6c-0.1-0.1-0.1-0.2-0.2-0.3 C319.3,212.4,319.4,212.5,319.6,212.6z M361.2,243.1c-5.6-6.3-10.9-12.9-16.3-19.4c-3.7-4.3-7.4-8.6-11.3-12.6 c-0.7-0.7-4.7-4.1-7.7-7.2c-1.2-1.3-2.4-2.6-3-3.6c-0.2-0.3-0.3-0.5-0.4-0.8c0-0.1-0.1-0.2-0.1-0.3c0.2-0.5,0-1.1-0.5-1.3 c-0.5-0.2-1.1,0-1.3,0.5c-0.2,0.5-0.2,1.1,0,1.8c0.2,0.7,0.7,1.5,1.4,2.4c2.8,3.8,9,9.2,9.9,10.1c4.2,4.5,8.2,9.1,12.2,13.8 c4,4.7,8,9.4,12.1,14.1c3.5,4,7.2,7.9,11,11.6c0.4,0.4,1,0.4,1.4,0c0.4-0.4,0.4-1,0-1.4C365.9,248.3,363.5,245.7,361.2,243.1z M377,231.6c-4.6-6.3-9.5-12.3-14.8-17.9c-2.7-2.8-5.5-5.5-8.4-8.1c-2.9-2.6-5.9-5-9-7.4c-3.8-2.8-10.1-5.2-15.1-7.9 c-2.2-1.2-4.2-2.5-5.6-4c-0.4-0.4-1-0.4-1.4-0.1c-0.4,0.4-0.4,1-0.1,1.4c1.5,1.6,3.6,3.1,6,4.5c4.9,2.7,10.9,5.1,14.7,7.9 c3,2.3,6,4.8,8.8,7.3c2.9,2.5,5.6,5.2,8.3,7.9c5.3,5.5,10.3,11.3,14.9,17.4c0.3,0.4,0.9,0.5,1.4,0.2 C377.2,232.6,377.3,232,377,231.6z M181.8,215.8c0.5,0.1,1-0.2,1.1-0.7c0.6-2.5,1-4.9,1.1-7.4c0.1-1.2,0.1-2.5,0-3.7 c0-1.2-0.2-2.5-0.3-3.7c-0.1-0.9-0.3-1.8-0.4-2.8c-0.2-0.9-0.3-1.8-0.5-2.7c-0.1-0.3-0.3-1.4-0.3-1.9c-0.2-1-1-0.8-1.6-0.5 c-0.1,0-0.3,0.1-0.3,0.3c-0.1,0.1-0.1,0.1-0.1,0.2c0,0.1,0,0.2,0,0.2c0,0,0,0.1,0,0.1c0.1,0.5,0.2,1.6,0.2,1.9 c0.2,1.1,0.3,2.1,0.4,3.2c0.1,0.7,0.2,1.4,0.2,2.1c0.1,1.2,0.2,2.4,0.2,3.6c0.1,1.2,0.1,2.4,0.1,3.6c0,2.4-0.2,4.7-0.6,7.1 C181,215.2,181.3,215.7,181.8,215.8z M246.7,205.6c-0.4-1.2-0.6-2.4-0.7-3.7c-0.1-1.2-0.2-2.5-0.1-3.8c0.1-0.9,0.2-1.7,0.3-2.6 c0.2-0.9,0.4-1.7,0.7-2.5c0.1-0.4,0.4-1.2,0.6-1.8c0.5-0.2,0.8-0.7,0.6-1.2c-0.1-0.5-0.5-0.7-0.7-0.8c-0.3-0.1-0.6-0.1-1,0.1 c-0.2,0.1-0.5,0.4-0.7,0.9c-0.3,0.6-0.6,1.6-0.8,2.1c-0.4,0.9-0.7,1.8-0.9,2.8c-0.2,0.9-0.4,1.9-0.5,2.9c-0.1,1.5-0.1,2.9,0,4.3 c0,0.1,0,0.3,0.1,0.4c-4.4-2.4-9-3.9-13.8-4.6c-5-0.8-10.1-0.9-15.2-0.5c-3.4,0.2-6.7,0.7-10,1.2c-2.7,0.4-5.5,0.9-8.2,1.3 c-1.8,0.3-3.6,0.5-5.5,0.7l-4.2,0.4c-0.4,0-1.1,0.1-1.4,0.1c0,0,0,0-0.1,0c-0.4,0-0.9,0.2-1,0.7c0,0,0,1.3,1.1,1.3c0.3,0,1,0,1.4,0 l4.3-0.3c2.3-0.2,4.6-0.5,6.9-0.8c2.3-0.3,4.6-0.6,6.9-1c3.2-0.5,6.5-0.9,9.8-1.1c4.9-0.4,9.8-0.4,14.6,0.3c5.1,0.7,10,2.2,14.7,4.9 c0.1,0.4,0.2,0.8,0.4,1.2c0.9,2.6,2.3,5,4.1,7.3c0.3,0.4,0.9,0.5,1.4,0.2c0.4-0.3,0.5-0.9,0.2-1.3 C248.5,210.3,247.4,208,246.7,205.6z M197,143c-0.3,0.5-0.1,1,0.3,1.3c0.5,0.3,1.1,0.1,1.3-0.3c1.2-1.8,2-3.7,2.3-5.6 c0.2-1.2,0.3-2.5,0.1-3.7c-0.1-0.8-0.3-1.6-0.6-2.4c-0.1-0.3-0.5-1.2-1.1-2.2c-0.5-1-1-2-1.3-2.7v0c0.2-0.5,0-1.1-0.5-1.3 c-0.6-0.3-1-0.1-1.3,0.1c-0.2,0.2-0.5,0.7-0.3,1.4c0.2,1.3,1.9,4.7,2.1,5.4c0.2,0.7,0.3,1.4,0.4,2c0.1,1,0.2,2.1,0,3.1 C198.5,139.7,197.9,141.3,197,143z M225,138.5c1.4,0.7,3.1,1.2,4.8,1.7c0.5,0.2,1-0.1,1.2-0.6c0.2-0.5-0.1-1-0.6-1.2 c-2.7-0.9-5.2-1.9-6.9-3.5c-1-0.9-1.7-2.1-2-3.6c-0.2-0.9-0.2-1.8-0.1-2.9c0.1-0.8,0.2-1.6,0.3-2.3c0.2-1.2,0.5-2.4,0.7-3.6l0.3-2.1 c0-0.1,0-0.4,0-0.6c0-0.1,0.1-0.1,0.1-0.2l0,0c0,0,0,0,0,0l0,0c0-0.2,0-0.3,0.1-0.3c0,0,0.1,0,0.1,0c0.1-0.2,0-0.5-0.1-0.7 c-0.3-0.6-0.8-0.6-1-0.6c-0.3,0-0.6,0.1-0.9,0.6c-0.1,0.1-0.1,0.3-0.2,0.6c0,0.2,0,0.6-0.1,0.8l-0.5,2c-0.3,1.2-0.6,2.4-0.9,3.6 c-0.2,0.8-0.3,1.7-0.4,2.5c-0.3,3.1,0.3,5.4,1.6,7.1C221.7,136.6,223.2,137.6,225,138.5z M222.9,119.4c0,0.1,0,0.1-0.1,0.2 C222.9,119.5,223,119.4,222.9,119.4z M211.4,279.8c-16.6,0.3-36-6-35.8-6c12.6,15.7,24.7,23.7,51.4,14.8 c5.6-1.9,21.3-16.4,20.9-16.9C247.5,271.1,223,279.6,211.4,279.8z M315.4,140c0.3,0.4,0.3,1-0.1,1.4c-2.7,2.3-5.4,4.6-7.9,7.1 c0,0.3-0.1,0.5-0.3,0.7l0,0c0,0,0,0,0,0.1c-0.1,0-0.1,0.1-0.2,0.1c0,0,0.1,0,0.2-0.1c0,0,0,0.1,0,0.1c-0.5,1.6-0.5,5.7-0.6,6.4 c-0.2,2.1-0.4,4.2-0.6,6.4c-0.2,2.1-0.4,4.2-0.6,6.4c-0.3,2.8-0.5,5.7-0.8,8.5c0,0.5-0.5,0.9-1,0.9c-0.5,0-0.9-0.5-0.9-1 c0.1-4.3,0.3-8.6,0.7-12.9c0.1-1.1,0.2-2.3,0.3-3.4c0.2-1.7,0.4-3.4,0.7-5.1c0.1-0.4,0.2-2.2,0.4-4c-0.6,0.6-1.1,1.2-1.7,1.9 c-1.3,1.4-2.5,2.9-3.7,4.4c-0.7,1-1.5,1.9-2.2,2.9c-0.7,1-1.4,2-2,3c0,0.1-0.9,1.7-1.2,2.5c0-0.1-0.1-0.2-0.2-0.3 c0,0.1,0.1,0.2,0.1,0.4c0,0,0,0.1,0,0.1c0,0-0.1,0.1,0,0.1l0,0c0,0.5-0.4,0.8-0.9,0.9c-0.2,0-0.5,0-0.6-0.2 c-0.2-0.1-0.4-0.3-0.5-0.7c0-0.1,0-0.4,0.1-0.8c0.3-0.9,1.3-3,1.3-3.1c0.6-1.1,1.3-2.2,2-3.3c0.7-1.1,1.4-2.1,2.2-3.1 c1.2-1.6,2.4-3.1,3.7-4.6c1.3-1.5,2.7-2.9,4.1-4.2c2.8-2.7,5.8-5.2,9-7.6C314.5,139.5,315.1,139.6,315.4,140z M293.3,165.5 c-0.1-0.1-0.3-0.2-0.5-0.2C293,165.4,293.2,165.4,293.3,165.5z M293.7,166.3C293.7,166.4,293.7,166.4,293.7,166.3 c0.2,0.1,0.2,0,0.1-0.2C293.8,166.2,293.7,166.3,293.7,166.3L293.7,166.3z M307,149.2L307,149.2L307,149.2 C307.1,149.2,307.1,149.1,307,149.2L307,149.2L307,149.2z M116.4,162.7c-1.2-1.5-2.5-3-3.9-4.3c-1.4-1.4-2.8-2.7-4.3-3.9 c-0.9-0.7-1.8-1.4-2.7-2.1c-0.9-0.7-1.9-1.3-2.9-1.9c-0.5-0.3-1.4-0.6-2.2-0.8c-0.2-0.1-0.4-0.1-0.6-0.2c-0.2-0.4-0.6-0.6-1.1-0.5 c-0.9,0.2-1,0.8-1,1.1c0,0.3,0.1,0.6,0.5,0.9c0.2,0.1,0.7,0.3,1.3,0.5c0.7,0.2,1.6,0.5,2.1,0.8c0.9,0.6,1.8,1.2,2.7,1.9 c0.9,0.7,1.7,1.3,2.6,2.1c0.3,0.2,0.5,0.5,0.8,0.7c0,0,0,0-0.1,0c-0.5,0.2-0.8,0.8-0.6,1.3c0,0.1,0,0.1,0.1,0.1l0,0c0,0,0,0,0.1,0.1 c0.1,0.1,0.2,0.2,0.3,0.3c-0.1,0-0.2-0.1-0.3-0.1c0,0.1,0,0.1,0,0.2c0.4,1.6,1,5.9,1,6.1c0.3,2.6,0.4,5.2,0.6,7.8 c0.2,2.6,0.4,5.3,0.6,7.9c0.2,2.3,0.5,4.6,1,6.8c0.1,0.5,0.6,0.9,1.1,0.8c0.5-0.1,0.9-0.6,0.8-1.1c-0.5-3.5-0.7-7.1-0.9-10.7 c-0.1-2.4-0.2-4.8-0.4-7.3c-0.1-1.5-0.3-3-0.5-4.6c0-0.3-0.8-4.6-1.3-6.3c0.6,0.6,1.2,1.2,1.8,1.8c1.3,1.3,2.6,2.7,3.8,4.1 c2.4,2.9,4.7,5.9,6.6,9.1c0.3,0.5,0.9,0.6,1.3,0.3c0.5-0.3,0.6-0.9,0.3-1.3C121,169,118.8,165.8,116.4,162.7z M106.8,158.5 c-0.1,0.1,0,0.2,0.1,0.2l0-0.1C106.9,158.5,106.8,158.5,106.8,158.5z M159.2,111.6l-4.4-0.8c7.5,8.1,10.7,19.8,21.9,23.8 c2.7,1,9.6,3.2,11.9,0.2c1.5-2-1.8-4.9-3.1-5.9c-5.6-4.4-12.6-7-18.5-10.9c-2-1.3-3.9-2.6-5.7-4.2 C160.4,113.2,158.2,111.4,159.2,111.6z M233.8,130.5c3.5,0.5,7-0.4,10.3-1.6c9.2-3.4,21.9-10.6,23.7-21.2 c-5.4,7.1-18.6,10.2-26.5,13.7c-2.6,1.1-10.3,3.4-10.7,7C230.4,129.9,232.7,130.3,233.8,130.5z M179.7,147c0.4,0.1,0.8,0.1,1.2,0.2 c0.1,0,0.4,0.2,0.6,0.3c1.7,0.8,5.4,2.6,7,3.6c0.1,0.1,0.3,0.2,0.4,0.2c0,0,0-0.1,0-0.1c0,0,0,0.1,0.1,0.1c0.1,0,0.1,0.1,0.1,0.1 l0,0c0.3,0.3,0.7,0.5,1.2,0.3c0.5-0.2,0.8-0.8,0.6-1.3c0-0.1-0.2-0.4-0.5-0.6c-0.4-0.3-1.3-0.9-2.4-1.5c-1.9-1.1-4.4-2.4-5.6-2.9 c-0.5-0.2-0.8-0.3-0.9-0.4c-1.7-0.3-3.4-0.5-5.1-0.6c-1.7-0.1-3.5-0.2-5.2-0.2c-3.7,0.1-7.4,0.5-11,1.3c-3.6,0.9-7.1,2.3-10.3,4.3 c-0.6,0.4-3.1,1.9-4.4,3.2c-0.7,0.7-1.1,1.4-1.1,1.9c0,1.6,0.4,3.2,1,4.8c0.9,2.2,2.3,4.3,3.7,6c0.9,1.2,2,2.2,3,3.2 c1.1,1,2.2,1.9,3.3,2.8c0.4,0.3,1,0.2,1.4-0.2c0.3-0.4,0.2-1-0.2-1.4c-1.1-0.9-2.2-1.8-3.2-2.7c-1-0.9-1.9-1.9-2.7-3 c-1.2-1.6-2.5-3.5-3.3-5.6c-0.5-1.2-0.8-2.5-0.8-3.8l0,0c0.9-1.1,3.9-2.8,4.4-3.1c3-1.9,6.2-3.1,9.6-4c0.6-0.1,1.1-0.2,1.7-0.4 c-0.2,0.6-0.5,1.1-0.5,1.5c-0.3,2.2-0.5,4.4-0.6,6.6c-0.2,5.7,1.7,13.7,8.4,15c3.4,0.6,5.7-2.1,7.1-4.8 C179.6,160.1,179.9,153.3,179.7,147z M188.9,151.2c0,0.1,0.1,0.2,0.1,0.1C189,151.3,189,151.3,188.9,151.2L188.9,151.2z M278.7,142.6c0.2,1.5-0.2,3.7-1,6.1c-2,6.1-6.4,14.1-9.1,17.2c-0.3,0.4-1,0.4-1.4,0.1c-0.4-0.3-0.5-1-0.1-1.4 c2.2-2.6,5.5-8.7,7.6-14.1c1-2.7,1.7-5.2,1.7-7c0-0.5,0-0.9-0.2-1.2c-0.1-0.2-0.2-0.4-0.4-0.5c-1-0.4-1.9-0.7-2.8-1 c-1-0.3-1.9-0.6-2.8-0.8c-3.1-0.8-6-1.1-8.8-1.1c3.2,7,4.1,15.5,1,22.7c-1.3,3-3.5,6.7-7,7.2c-7.8,1.2-9.7-12-10.1-17 c-0.2-1.8-0.7-5.2-0.7-7.5c-2.1,1.7-3.5,3.5-4.1,5c-0.2,0.5-0.8,0.8-1.3,0.6c-0.5-0.2-0.8-0.8-0.6-1.3c1.4-3.7,6.3-8.7,14.2-10.9 c4.9-1.4,11-1.7,17.9-0.1c1,0.2,2,0.5,3,0.8c1,0.3,1.9,0.7,2.9,1C277.8,140.1,278.5,141.1,278.7,142.6z M253,140.2 c-1.1,0.3-2.2,0.7-3.2,1.2C250.8,141,251.9,140.6,253,140.2z" fill="inherit" fill-rule="evenodd"/></g></svg>