<?xml version="1.0" encoding="UTF-8"?><svg xmlns="http://www.w3.org/2000/svg" xmlns:xlink="http://www.w3.org/1999/xlink" height="516.7" preserveAspectRatio="xMidYMid meet" version="1.0" viewBox="-6.4 -0.4 535.4 516.7" width="535.4" zoomAndPan="magnify"><g id="change1_1"><path clip-rule="evenodd" d="M380.7,194.7c-4.9,15-19.7,25.9-38,28.2c-6,22-14.5,46.6-28.8,64.4c1.1,7.9,0.6,19.9,2.3,28.6 c2.5,12.8,7,22.3,6.2,32.1c-0.6,7.4-11.4,18.3-15.8,23.7c-20.4,24.7-52.1,42-79.8,17c-4.4-3.9-8.4-8.2-12.1-12.8 c-4.9-6-11.6-14.5-12.9-22.5c-0.7-4.6,3.5-11,4.9-15.2c3.2-9.3,5.6-18.7,6.6-28.5c0.8-7.9,0.8-15.8,0.3-23.7c-1.9-2-3.8-4-5.5-6 c-11.8-14.1-19.8-29.6-24.7-45.8c-26.7-8.2-49-48.3-33.8-73.8c7-11.6,22.7-1.7,28.8,7.6c1.5-13.9,4.3-27.8,8.1-41.5 c5.6-20.4,16.5-38.6,29.9-54.8c2.2-2.7,8.9-13.4,13.1-13.9l14.7-11.4c38.1-6.5,31.4,55.7,45.8,76c8.4,11.9,24.7,17.6,37.8,22.4 c6.9,2.6,16.7,4.8,20.7,11.6c0.8,1.3,1.4,2.7,1.9,4.2c0.3-0.4,0.6-0.7,0.8-1c6.1-7.5,17.1-13,25.2-4.9 C382.9,161.1,383.3,187,380.7,194.7z" fill="#ffdcca" fill-rule="evenodd"/></g><g id="change2_1"><path clip-rule="evenodd" d="M525.6,516.3L0.7,514.8c0,0-7.1-57.2,23-114.2c8.5-16.1,119.7-41.7,180-62.7c5.3-1.9,60.6,58.6,60.6,58.6 l57.3-60.6c0,0,168.6,59.3,186.5,82.8C529,446.1,525.6,516.3,525.6,516.3z M159.7,156.4c5.6,0.3,8,11.4,11,15.6 c0.9,1.2,3.8,7.4,6,6.9c2.4-0.6,2.9-6.9,3.2-8.6c2-9.5,3.8-18.9,6.9-28.2c10.4-30.9,38.5-52.6,46.7-83.9 c60.4-15.3,36.4,41.5,43.3,63.8c5.2,16.6,23.5,35.8,31,41.2c3.7,2.6,0.4-13.9,3.9-11.3c3.4,2.5,8.4,7.7,12.9,8.3 c3.3,0.4,6.6-8.6,8.2-12.7c0.7,4.9,0.8,9.9,0.3,14.8c-0.1,1.1-1.8,5.5-1.2,6.6c0.4,0.6,3.9-2.7,4.2-2.9c2.9-2.6,5.7-5.5,7.9-8.7 c1.7,2.7,3.6,5.2,5.5,6.7c0.6,0.5,5.8,5.1,6.8,4.3c0.6-0.6-1-7.7-1.1-8.4c-0.1-0.7-0.1-1.4-0.2-2c1.7-1.1,4.4-4.2,6.9-5.1 c1.8-0.6,3.7-1,5.6-0.4c1,0.3,7.4,5.4,8.2,2.5c1.7-6.2,24.6-45.8,5.8-79.8C359.2,34.4,294.4-0.4,273.1,0 c-18.5,0.3-35.7,5.7-50.7,30.3c-0.2,0.4-0.4,0.9-0.6,1.4c-10-3.3-22.6,0.6-31.6,4.5c-37.5,16.6-54.2,58.3-58.3,98.6 c-2.5,24,14.2,42.1,14.2,42.1S155.5,156.2,159.7,156.4z M259.3,180.9c-4.6,0.9-15.2,24.4-11.4,30.9c2.1,3.5,11.3,12.5,16.1,11 c4.9-1.5,11.2-14.6,11.3-16.3C275.4,203.9,263.9,180,259.3,180.9z" fill="#ffc000" fill-rule="evenodd"/></g><g id="change3_1"><path d="M442,425.6c-0.3-0.4-1-0.5-1.4-0.1c-7.3,6.2-12.9,13-17.3,20.4c-4.1,6.8-7.3,14.1-10.2,21.8c-1.8,4.9-3.5,9.9-5.3,15.1 c-1.2,3.4-2.3,6.9-3.3,10.4c-1,3.5-1.9,7-2.6,10.6c-0.2,1.2-0.5,2.3-0.6,3.5c-0.2,1.2-0.4,2.4-0.5,3.5c-0.1,0.5,0.2,1.8,0.2,2.6 c-0.3,0.2-0.4,0.7-0.3,1.1c0.2,0.5,0.4,0.7,0.5,0.7c0.4,0.2,1.4,0.4,1.6-0.8c0.1-0.5,0-2.5,0.1-3.3c0.1-1.1,0.3-2.3,0.5-3.4 c0.2-1.1,0.4-2.3,0.7-3.4c0.6-2.8,1.3-5.6,2.1-8.3c1.2-4.1,2.5-8.3,3.9-12.3c1.8-5.1,3.5-10.1,5.3-15c2.8-7.6,5.9-14.8,9.8-21.5 c4.3-7.2,9.5-14,16.6-20.1C442.2,426.7,442.3,426,442,425.6z M400.9,514.1c-0.2,0,0.1-0.3,0.2-0.4l0,0 C401,513.9,401,514.1,400.9,514.1z M171,188.4c-1.9-1.9-3.9-3.7-6.1-5.3c-1-0.7-2-1.4-3.1-2c-1.1-0.6-2.2-1.1-3.3-1.6 c-0.4-0.2-1.6-0.2-2.4-0.3c-0.2-0.3-0.5-0.4-0.8-0.4c-0.7,0-1,0.4-1,0.5c-0.1,0.2-0.4,1.3,0.7,1.6c0.1,0,0.2,0,0.3,0.1 c0,0,0-0.1,0-0.1c0,0,0,0,0,0c0.1,0,0.3,0,0.4-0.1c-0.1,0.1-0.2,0.2-0.3,0.2c0.7,0.1,1.8,0.4,2.2,0.6c1,0.5,2.1,1.1,3,1.7 c1,0.6,1.9,1.2,2.9,1.9c0.3,0.2,0.5,0.4,0.7,0.6c-0.1,0.2-0.2,0.4-0.1,0.7c0,0.3,0.2,0.5,0.5,0.7c0,0.2-0.1,0.5-0.1,0.7 c-0.1,0.6-0.2,1.2-0.1,1.7c0.2,1.1,0.3,2.1,0.5,3.2c0.2,1,0.4,2.1,0.6,3.1c0.3,1.7,0.6,3.5,1,5.2c0.5,2.6,1,5.2,1.5,7.8 c0.4,1.9,0.8,3.7,1.2,5.6c0.1,0.5,0.6,0.9,1.1,0.8c0.5-0.1,0.9-0.6,0.8-1.1c-0.8-4.3-1.3-8.7-2.1-13.1c-0.3-1.9-0.7-3.7-1.1-5.6 l-1.3-6.2c-0.1-0.3,0-0.8,0.1-1.3c0,0,0-0.1,0-0.1c0.9,0.8,1.9,1.7,2.7,2.5c2.8,2.7,5.4,5.6,8.1,8.5c0.3,0.4,1,0.4,1.3,0.1 c0.4-0.4,0.4-1,0.1-1.4C176.3,194.3,173.8,191.2,171,188.4z M155.5,178.9c0-0.1,0.2,0.1,0.2,0.1c0.1,0.1,0.1,0.1,0.2,0.2 C155.6,179.1,155.4,179,155.5,178.9z M155.3,180.9l0.1,0C155.3,181,155.3,181,155.3,180.9z M351.4,188.5L351.4,188.5 c0,0.1,0,0.2,0,0.2C351.3,188.6,351.3,188.5,351.4,188.5L351.4,188.5z M374.1,166.9c0.2,0.5,0.1,1.1-0.4,1.3 c-3.4,1.9-6.6,4.1-9.5,6.6c-0.5,0.4-0.9,0.8-1.4,1.3c0.1,0.1,0.2,0.4,0.2,0.7c0,0.2-0.2,1-0.3,1.3l-0.4,2l-0.9,5.5 c-0.3,1.5-0.5,3.1-0.8,4.6c-0.3,1.5-0.5,3.1-0.8,4.6c-0.6,3.1-1.2,6.1-1.9,9.1c-0.1,0.5-0.6,0.9-1.1,0.8c-0.5-0.1-0.9-0.6-0.8-1.1 c0.8-4.3,1.3-8.6,2-12.8c0.3-1.8,0.7-3.7,1-5.5l1.1-5.5l0.3-1.4c-0.2,0.2-0.4,0.4-0.6,0.5c-1.4,1.4-2.7,2.8-4,4.2 c-0.3,0.3-3.6,3.8-4.5,5.4c0,0,0,0,0,0.1c0-0.1-0.1-0.2-0.2-0.3c0.1,0.1,0.1,0.2,0.1,0.3c0,0-0.1,0.1,0,0.1c0,0,0,0,0,0 c0,0.3-0.1,0.6-0.4,0.9c-0.4,0.3-1.1,0.3-1.4-0.1c-0.2-0.2-0.3-0.6-0.2-1.2c0.1-0.4,0.3-0.9,0.7-1.5c1.2-1.9,3.8-4.9,4.1-5.2 c1.3-1.5,2.6-3,4-4.4c1.4-1.4,2.9-2.8,4.5-4c3.1-2.5,6.5-4.7,10.2-6.5C373.3,166.2,373.9,166.4,374.1,166.9z M173.3,100.3 c2.3-9.4,5.9-18.8,10.9-27.4c2.5-4.3,5.3-8.4,8.5-12.1c3.2-3.8,6.8-7.2,10.7-10.3c0.6-0.5,1.1-0.9,1.7-1.2c0.6-0.4,1.1-0.8,1.7-1.2 c2.4-1.6,8.3-5.1,12.8-5.2c2.5-0.1,4.6,0.8,5.6,3.2c0.2,0.5,0,1.1-0.5,1.3c-0.5,0.2-1.1,0-1.3-0.5c-0.9-2.1-3.1-2.2-5.4-1.7 c-3.8,0.9-8,3.5-9.9,4.8c-0.6,0.4-1.1,0.8-1.6,1.1c-0.5,0.4-1,0.8-1.6,1.2c-3.8,3-7.2,6.4-10.3,10c-3.1,3.7-5.9,7.6-8.3,11.7 c-5,8.3-8.6,17.5-11,26.7c-0.1,0.5-0.7,0.8-1.2,0.7S173.2,100.8,173.3,100.3z M219.1,56c-1.2,1-2.3,2-3.3,3 c-1.5,1.5-2.9,3.1-4.3,4.7c-1.3,1.7-2.6,3.4-3.7,5.1c-2.3,3.5-4.3,7.2-6.1,11.1c-0.2,0.5,0,1.1,0.5,1.3c0.5,0.2,1.1,0,1.3-0.5 c1.9-3.7,4-7.2,6.3-10.6c1.2-1.7,2.4-3.3,3.7-4.9c1.3-1.6,2.6-3.1,4.1-4.6c1-1,2-2,3.1-3c1.1-0.9,2.2-1.8,3.4-2.5c0,0,1.7-1,2.6-1.2 c0.1,0.1,0.1,0.1,0.2,0.2c0.5,0.3,1.1,0.2,1.4-0.3c0.4-0.6,0.2-1.1-0.1-1.4c-0.2-0.2-0.5-0.4-1-0.4c-1,0-4.2,1.1-4.3,1.2 C221.6,54.1,220.3,55,219.1,56z M227.2,54.2c0,0.2-0.3,0-0.4-0.2C227,54,227.2,54,227.2,54.2z M233.9,59.5c0.4-0.3,0.5-0.9,0.3-1.3 c0,0,0,0,0,0c0,0-0.1,0,0-0.1l0,0l0,0c0-0.1,0.1-0.2,0.1-0.4c0.2-0.7,0.7-1.5,1.3-2.4c1.4-2.2,3.4-4.5,3.8-5 c3.1-3.9,8-8.5,13.3-10.7c3.4-1.4,7.1-1.8,10.5-0.1c4.3,2.1,6.6,5.4,8,9.7c1,3.2,1.5,6.8,1.8,10.8c-1.3-2.8-2.9-5.6-5-7.9 c-2.8-3.1-6.3-5-10.3-4.7c-2.2,0.2-4.3,0.8-6.2,1.8c-1.9,0.9-3.7,2.1-5.3,3.4c-0.1,0.1-2.5,2.4-3.3,3.3c-0.3,0.4-0.4,0.8-0.4,0.9 c0,0.6,0.2,0.9,0.6,1c0.5,0.2,1.1,0,1.3-0.6c0,0,0,0,0,0c0,0,0-0.1,0.1-0.1c0-0.1,0-0.1,0-0.2c0,0,0,0.1,0,0.1 c0.7-0.9,2.9-2.8,3-2.9c1.5-1.1,3.2-2.2,5-3c1.7-0.8,3.6-1.3,5.5-1.5c3.3-0.3,6,1.4,8.3,3.9c2.1,2.2,3.8,5.1,5.1,7.9 c-0.7-1-1.6-1.9-2.4-2.6c-1.1-0.9-2.2-1.7-3.3-2.1c-0.5-0.2-4.5-1.6-6.1-2.2c-0.1,0-0.3-0.1-0.4-0.1c0,0,0,0,0,0c0,0,0,0-0.1-0.1 c-0.1,0-0.1,0-0.1-0.1c-0.4-0.2-0.9-0.2-1.2,0.1c-0.4,0.4-0.4,1,0,1.4c0.1,0.1,0.7,0.5,1.6,0.9c1.8,0.8,4.8,2,5.3,2.2 c0.9,0.4,1.7,1,2.6,1.7c0.8,0.7,1.6,1.5,2.3,2.4c1.5,1.8,2.8,3.9,3.4,5.7c0.1,0.3,0.3,0.5,0.5,0.6c0,0,0,0.1,0,0.1 c0,0.5,0.5,1,1,0.9c0.5,0,0.9-0.5,0.9-1c0-0.8-0.1-1.7-0.1-2.5c0,0,0,0,0,0c-0.3-7.1-0.5-13.4-2-18.5c-1.5-5-4.2-8.8-9.1-11.3 c-4.1-2-8.5-1.7-12.5,0.1c-5.7,2.4-10.8,7.4-14.1,11.6c-0.5,0.7-3.7,4.6-4.9,7.3c-0.3,0.7-0.5,1.3-0.5,1.8c0,0.5,0.1,1,0.3,1.3 C232.8,59.7,233.4,59.8,233.9,59.5z M244,56.2c0.2,0.1,0.4,0.3,0.4,0.5C244.4,56.4,244.2,56.3,244,56.2z M234.1,58.1L234.1,58.1 C234.1,58.1,234.2,58.2,234.1,58.1C234.2,58.2,234.1,58.1,234.1,58.1z M244.5,57.2L244.5,57.2c0,0.1,0,0.2-0.1,0.1 C244.5,57.3,244.5,57.3,244.5,57.2C244.5,57.3,244.5,57.2,244.5,57.2z M259.2,54.7c0,0-0.1-0.1-0.1-0.1 C259.2,54.5,259.2,54.6,259.2,54.7L259.2,54.7z M235.6,32.4c-0.2-0.5-0.3-1.1-0.1-1.7c0.4-1.6,2.4-3.7,3-4.2 c1.9-1.8,4.2-3.2,6.5-4.5c2.3-1.2,4.8-2.2,7.2-3.1c7.2-2.5,15.1-3.7,22.6-2.8c7.6,0.9,14.8,4,20.5,9.9c3.8,3.9,6.2,8.6,7.7,13.5 c2.2,7.2,2.6,15.2,3,22.7c0.3,6.6,0.8,13.1,1.7,19.6c0.9,6.5,2.1,12.9,4,19.2c1.4,4.6,3,9.2,5.3,13.3c1.5,2.7,3.4,5.3,5.7,7.5 c0.4,0.4,0.4,1,0,1.4c-0.4,0.4-1,0.4-1.4,0c-2.5-2.4-4.5-5-6.1-7.9c-2.4-4.2-4.2-8.9-5.6-13.7c-1.6-5.1-2.7-10.3-3.6-15.5 c-1.3-7.8-2-15.7-2.5-23.7c-0.4-7.3-0.8-15.1-3-22.1c-1.4-4.6-3.6-8.9-7.1-12.5c-5.3-5.5-12-8.4-19.1-9.3 c-7.2-0.9-14.7,0.2-21.6,2.5c-2.3,0.8-4.7,1.7-7,2.9c-2.2,1.1-4.3,2.5-6.1,4.1c-0.3,0.3-1.3,1.3-2,2.3c-0.2,0.3-0.4,0.6-0.5,0.9 c0,0.1,0,0.1,0,0.2c0,0,0,0,0,0c0,0,0,0,0,0c0,0,0.1,0.1,0.2,0.1c0.5,0.2,0.8,0.7,0.7,1.2c-0.2,0.5-0.7,0.8-1.2,0.7 C236.3,33.3,235.9,32.8,235.6,32.4z M332,52.4c-0.3-0.4-0.2-1.1,0.2-1.4c0.5-0.3,1.1-0.2,1.4,0.2c0.5,0.6,0.8,1.5,1,2.4 c0.4,1.8,0.4,4,0.5,5.3c0.2,2.6,0.4,5.3,0.4,7.9c0,3.9-0.1,7.9-0.2,11.8c-0.1,4.4-0.3,8.9-0.2,13.3c0,6.7,0.4,13.3,1.8,19.7 c1.5,7,4,13.7,8.5,19.9c0.3,0.4,0.2,1-0.2,1.4c-0.4,0.3-1,0.2-1.3-0.2c-4.7-6.3-7.5-13.3-9.2-20.5c-1.5-6.5-2-13.3-2-20.1 c0-4.5,0.1-8.9,0.3-13.4c0.2-3.9,0.3-7.8,0.3-11.7c0-2.6-0.1-5.2-0.3-7.7c-0.1-1.1,0-2.8-0.3-4.4C332.6,53.9,332.4,53,332,52.4z M356.2,157.8c0.5-0.2,0.7-0.8,0.5-1.3c-0.1-0.1-0.2-0.3-0.3-0.4c0.1-0.4,0.4-1,0.4-1.2c0.1-0.7,0.1-1.4,0.2-2.1 c0.1-0.7,0.2-1.4,0.3-2.1c0.3-1.9,0.7-3.8,1.1-5.6c0.5-1.9,1-3.7,1.5-5.5c0.8-2.8,1.6-5.5,2.2-8.2c0.6-2.8,1.1-5.7,1.3-8.5 c0.4-5.6,0-11.2-1.8-17.1c-0.2-0.5-0.7-0.8-1.2-0.7c-0.5,0.2-0.8,0.7-0.6,1.2c1.3,4.5,1.7,8.8,1.6,13c-0.1,4-0.8,7.9-1.7,11.8 c-0.6,2.6-1.2,5.2-2,7.8c-0.5,1.9-1,3.8-1.4,5.7c-0.4,1.9-0.8,3.8-1.1,5.8c-0.1,0.7-0.2,1.5-0.3,2.2c-0.1,0.7-0.1,1.5-0.2,2.2 c0,0.5-0.3,1.5-0.3,2c0,0.4,0.2,0.7,0.3,0.8C355.2,157.9,355.6,158.1,356.2,157.8z M356.5,156.3c0.2,0.2,0.3,0.3,0.1,0.4 C356.4,156.6,356.4,156.5,356.5,156.3z M154.9,137.1c-0.7-4.8-1-9.7-0.6-14.5c0.6-7.6,2.8-15.2,7.4-22.9c0.3-0.5,0.9-0.6,1.3-0.3 c0.5,0.3,0.6,0.9,0.4,1.3c-4.2,7.5-6.1,14.8-6.6,22.1c-0.3,4.6,0,9.3,0.6,14c0.9,6.8,2.7,13.6,4.7,20.7c0.2,0.5-0.1,1.1-0.7,1.2 c-0.5,0.2-1.1-0.2-1.2-0.7C157.8,150.9,155.9,144,154.9,137.1z M175.5,116.9L175.5,116.9c0,0,0,0.1-0.1,0.1v0 C175.4,117,175.5,116.9,175.5,116.9L175.5,116.9C175.5,116.9,175.5,116.9,175.5,116.9z M171.4,139.7c-0.2-3.8-0.3-7.5-0.1-11.3 c0.2-2.5,0.5-5,0.9-7.5c0-0.1,0.8-3.5,1.3-4.6c0.2-0.5,0.5-0.8,0.7-0.9c0.3-0.2,0.6-0.2,0.9-0.1c0.5,0.2,0.8,0.8,0.5,1.3 c0,0.1-0.1,0.2-0.2,0.3c0,0,0,0,0,0c0,0,0,0,0,0.1c-0.1,0-0.1,0.1-0.2,0.1c0.1,0,0.1,0,0.2-0.1c-0.4,1.1-0.9,4.2-0.9,4.3 c-0.3,1.8-0.4,3.7-0.6,5.5c-0.1,1.2-0.2,2.5-0.3,3.7c-0.2,3.1-0.3,6.2-0.3,9.3c0,0.5-0.4,1-0.9,1 C171.9,140.7,171.4,140.2,171.4,139.7z M213.6,285.7c0.9,1.1,36.7,22.9,48.4,23.1c14.2,0.2,48.5-19.6,51.7-22.6 c1.1-1-27.4,40-45,42.7C242,332.9,213.6,285.7,213.6,285.7z M208.1,132.3c7.5-5.3,17-9,26.3-8c2.7,0.3,7.7,1.3,8.7,4.4 c0.5,1.7-1.5,2.4-2.8,2.5c-4.2,0.6-8.6,0.1-12.8,0.3c-10.2,0.4-19.4,3.2-27.2,9.9l-0.4-1c-0.5-0.4,1.3-2.2,1.5-2.4 C203.4,135.9,205.7,134,208.1,132.3z M335.4,138.4c-8.9-6.2-20-7-30.6-6.3c-1.4,0.1-2.8,0.2-4.1,0.3c1.1,2.4,2.6,4.6,4.4,6.5 c0.4,0.4,0.4,1,0,1.4c-0.4,0.4-1,0.4-1.4,0c-2.3-2.2-4.1-4.8-5.4-7.7c-1.4,0.1-2.8,0.2-4.3,0.2c-1.3,0-3.3,0.2-4.2-0.9 c-1-1.2,0.4-3.2,1.3-4c1.3-1.3,2.9-2.1,4.7-2.6c-0.8-3.1-1.3-6.4-1.6-9.6c-0.4-3.9-0.5-7.8-0.6-11.3c-0.1-2.6-0.2-5.3-0.2-7.9 c0-1.8,0.1-3.6,0.3-5.4c0.1-0.5,0.6-0.9,1.1-0.9c0.5,0.1,0.9,0.6,0.9,1.1c-0.2,1.7-0.2,3.4-0.1,5.2c0.1,2.6,0.3,5.3,0.4,7.9 c0.1,3.5,0.3,7.3,0.7,11.2c0.3,3.1,0.7,6.2,1.4,9.3c1.3-0.3,2.6-0.4,3.8-0.5C312.3,123.1,327.5,130.6,335.4,138.4z M204.4,167.1 c0,0.2,0,0.3-0.1,0.5c-0.2,0.5-0.8,0.7-1.3,0.5c-0.6-0.2-0.8-0.7-0.8-1.3c0-0.3,0.3-0.7,0.6-1.2c0.5-0.6,1.3-1.3,1.4-1.5 c1.3-1.2,2.8-2.3,4.5-3.2c1.6-0.9,3.3-1.6,5.1-2.1c1.7-0.5,3.4-0.7,5.2-0.6c2.6,0,5.1,0.6,7.6,1.5c4.2,1.5,8,4.1,10.7,6.8 c0.4,0.4,0.4,1,0,1.4c-0.4,0.4-1,0.4-1.4,0c-2.5-2.4-6.1-4.6-10.1-5.9c-1.8-0.6-3.8-1-5.7-1.2c-1.9-0.1-3.8,0-5.7,0.4 c-1.7,0.4-3.2,1-4.6,1.8c-1.5,0.8-2.9,1.7-4.2,2.8C205.6,165.9,204.7,166.8,204.4,167.1z M323.9,172.4c-3.4-2.9-7.2-5.3-11.5-6.4 c-2-0.5-4.1-0.7-6.4-0.5c-2,0.2-4.1,0.7-6.3,1.6c-1.6,0.7-3.9,2.9-5.8,4.1c-0.7,0.5-1.4,0.8-2,0.9c-0.5,0.1-1-0.3-1.1-0.8 c-0.1-0.5,0.3-1.1,0.8-1.2c0.4-0.1,0.8-0.3,1.3-0.7c1.1-0.7,2.2-1.8,3.3-2.7c1-0.8,1.9-1.4,2.7-1.8c2.5-1.1,4.8-1.7,7-1.9 c2.6-0.2,5,0,7.3,0.6c4.6,1.3,8.7,4.1,12.2,7.3c0.4,0.3,0.4,1,0.1,1.4C324.9,172.8,324.3,172.8,323.9,172.4z M232.9,235.6 c-0.2-0.5-0.5-0.6-0.7-0.6c-0.4-0.2-1.4-0.1-1.4,1.1c0,0.5,0.5,2.5,0.7,3.3c0.3,0.9,0.6,1.9,0.9,2.8c0.3,0.9,0.7,1.9,1.1,2.8 c1.1,2.3,2.7,3.9,4.6,5c2.8,1.6,6.2,2,9.6,1.9c3.6-0.1,7.2-0.3,10.9-0.6c3.3-0.3,6.7-0.6,10.1-0.9c5.1-0.5,10.1-1,15.1-1.4 c3.3-0.3,5.6-2,7.4-4.3c1.5-2,2.6-4.4,3.6-6.4c0.7-1.6,1.4-3.1,2.1-3.9c0.4-0.4,0.3-1-0.1-1.4c-0.4-0.4-1-0.3-1.4,0.1 c-0.8,0.9-1.6,2.5-2.5,4.4c-0.9,1.9-2,4.1-3.4,6c-1.4,1.8-3.3,3.2-5.9,3.3c-5.7,0.3-11.5,0.9-17.3,1.4c-3.8,0.4-7.7,0.7-11.5,1 c-2.4,0.2-4.8,0.3-7.2,0.4c-2.5,0.1-5-0.1-7.2-0.9c-2.1-0.8-3.9-2.2-5-4.5c-0.4-0.9-0.8-1.7-1.1-2.6c-0.3-0.9-0.7-1.8-0.9-2.7 c-0.1-0.4-0.6-1.4-0.7-2.1C233,236.3,233,235.9,232.9,235.6z M232.7,236.3c0-0.2,0-0.4,0.1-0.4C233,235.9,232.8,236.2,232.7,236.3z M346.1,344.8c-2.8,7.2-5.6,14.4-8.4,21.6c-6.6,16.7-13.3,33.4-20,50.2c-1.2,3.1-2.6,6.2-4,9.3c-1.4,3.1-3,6.1-4.6,9.1 c-0.2,0.3-1.8,3.5-2.7,4.6c-0.6,0.7-1.3,0.8-1.6,0.7c-0.9-0.2-2-1-3.2-2c-1.9-1.8-4-4.4-5.1-5.4c-3.3-3.1-6.5-6.3-9.6-9.6 c-4.6-4.9-9.1-10-13.7-15c-0.8-0.9-3.7-4.5-6.5-7.2c-1.2-1.1-2.3-2.1-3.3-2.7c-0.2-0.1-0.5-0.2-0.7-0.3c-0.1,0-0.2-0.1-0.3-0.1 c-1,0.2-1.9,1.1-2.9,2.1c-2.5,2.6-4.9,6.5-6.5,8c-2.6,2.5-5.3,4.9-8,7.2c-6.4,5.3-13.1,10.2-19.2,15.7c-1.3,1.1-5.3,5.5-8.8,8.3 c-1.2,0.9-2.3,1.7-3.3,2.1c-0.8,0.4-1.5,0.5-2.1,0.4c-0.3,0-0.7-0.2-1.1-0.6c-0.4-0.4-0.8-1-1.1-1.9c-1.2-2.7-2.3-7.8-2.5-8.6 c-1.2-3.8-2.5-7.6-3.6-11.4c-2.7-8.9-5.3-17.9-8-26.8c-1.9-6.4-3.9-12.8-5.9-19.2c-1.3-4.3-2.7-8.5-4.1-12.7 c-0.2-0.5-2.6-6.6-3.1-9.1c-0.2-0.7-0.1-1.2,0-1.5c0.1-0.3,0.3-0.5,0.5-0.6c0.5-0.3,1.1-0.2,1.4,0.3c0.2,0.3,0.2,0.6,0.1,0.9 c0,0.1,0,0.3,0.1,0.4c0.5,2.4,2.9,8.4,3.1,8.9c1.4,4.2,2.8,8.5,4.1,12.8c2,6.4,4,12.8,6,19.2c2.8,8.9,5.4,17.9,8.1,26.8 c1.2,3.8,2.4,7.6,3.6,11.4c0.3,0.8,1.6,7,2.9,9.2c0,0,0.1,0.1,0.1,0.2c0.2,0,0.4-0.1,0.6-0.2c0.8-0.4,1.8-1,2.8-1.8 c3.4-2.8,7.4-7.1,8.6-8.3c6.2-5.5,12.9-10.5,19.3-15.8c2.7-2.3,5.4-4.6,7.9-7c1.6-1.5,3.9-5.4,6.4-8c1.4-1.4,2.8-2.5,4.1-2.9 c0.6-0.1,1.4,0,2.2,0.4c0.9,0.4,1.9,1.2,3.1,2.2c3.2,2.9,6.9,7.5,7.8,8.5c4.6,5,9,10.1,13.6,15c3,3.3,6.2,6.5,9.5,9.5 c1.1,1,3.2,3.6,5.1,5.4c0.6,0.5,1.1,1,1.6,1.3c0.8-1.2,2.1-3.6,2.2-3.9c1.6-2.9,3.1-5.9,4.6-8.9c1.4-3,2.7-6.1,4-9.2 c6.7-16.8,13.5-33.4,20.2-50.1c2.9-7.2,5.7-14.3,8.5-21.5c0.2-0.5,0.7-0.7,1.2-0.6C346.1,343.8,346.3,344.3,346.1,344.8z M68.8,426.1L68.8,426.1c-0.1,0.1-0.2,0.1-0.2,0C68.7,426,68.7,426,68.8,426.1L68.8,426.1z M105.8,513.1c0.1,0.5-0.2,1-0.7,1.2 c-0.5,0.1-1-0.2-1.2-0.7c-4-15.7-5.1-30.3-9-44.4c-2.5-9.1-6.2-17.9-12.7-26.7c-2.7-3.7-4.9-6.5-6.7-8.8c-3.6-4.5-5.5-6.5-6.5-7.3 c-0.1-0.1-0.2-0.2-0.3-0.2c0.1,0,0.3-0.1,0.3-0.1c-0.1,0-0.2,0.1-0.4,0.1c-0.1-0.1-0.1-0.1-0.1,0c0,0,0,0,0,0 c-0.3,0-0.7-0.3-0.8-0.6c-0.2-0.5,0-1.1,0.6-1.3c0.2-0.1,0.6-0.2,1.3,0.2c0.5,0.3,1.4,1,3.2,2.9c2.2,2.3,5.6,6.5,11.2,13.8 c6.8,9.1,10.7,18.1,13.2,27.5C101.1,482.6,102,497.2,105.8,513.1z" fill="inherit"/></g></svg>